 <svg viewBox="0 0 451 297" fill="none" xmlns="http://www.w3.org/2000/svg">
        <path d="M371.156 154.112L370.056 158.24L364.098 160.251L362.315 158.159L361.45 158.397L363.067 164.636L365.488 164.907L368.717 166.129V167.351L370.196 167.08L372.35 164.099V161.659L373.563 159.219L374.909 159.49L373.292 156.1L373.045 153.917L371.157 154.112H371.156Z" fill="#C5FFBB"/>
        <path d="M404.957 165.473L404.781 177.095L406.455 177.005L408.655 174.432L410.504 174.522L411.693 175.587L412.093 178.868L415.878 180.868L416.848 180.511V179.311L413.809 176.781L412.309 173.319L413.498 172.744L412.619 170.837L410.859 170.794L410.417 168.754L405.752 165.606L404.958 165.472L404.957 165.473Z" fill="#C5FFBB"/>
        <path d="M64.824 107.05L67.124 114.283L66.054 114.883L66.173 116.319L68.194 117.874V120.751L70.694 123.151L69.624 116.085L68.197 111.41L68.554 108.177L69.743 108.296L70.218 109.376L69.743 112.129L75.925 124.229V128.542L80.918 134.41L86.386 136.926L88.645 135.608L91.855 138.242L93.7551 136.326L92.923 134.167L95.657 133.33L96.489 133.81L97.321 132.973H98.629L101.007 128.779L99.8181 127.7L95.1821 128.779L94.112 131.894L91.378 132.374L88.168 131.057L86.742 126.506L87.821 120.766L85.6151 119.392L84.564 113.881L83.684 113.506L82.076 115.137L80.231 114.153L79.508 110.477L72.199 109.711L68.423 106.872L64.8281 107.058L64.824 107.05Z" fill="#C5FFBB"/>
        <path d="M245.658 68.164L242.995 68.064L241.307 69.096L241.283 69.862L242.377 70.894L245.777 71.469L245.658 68.159V68.164Z" fill="#C5FFBB"/>
        <path d="M224.788 108.028L222.848 107.377L214.774 108.894L213.014 110.23L214.089 115.78L210.879 115.909L208.949 119.009L204.349 120.109L204.363 122.368L219.509 133.947L222.091 134.166L230.703 127.437L229.842 126.353L228.226 126.134L227.256 124.508V117.779L226.609 117.127L226.719 115.391L224.998 113.655L224.784 111.81L225.535 111.268L225.211 109.314L224.788 108.02V108.028Z" fill="#C5FFBB"/>
        <path d="M212.619 110.306H207.127L206.052 112.693L203.574 113.887L201.529 119.422L197.544 121.809L191.944 131.029L197.436 130.919L197.65 128.209H199.05V124.519H203.896L204.005 119.745L208.637 118.661L210.577 115.513L213.592 115.404L212.617 110.304L212.619 110.306Z" fill="#C5FFBB"/>
        <path d="M191.986 131.41L193.023 132.765L192.809 138.624L194.316 137.54L195.39 137.321L196.898 137.863L198.619 140.25L200.236 139.166L208.096 139.057L206.156 125.927L208.239 125.917L204.359 122.945V124.876H199.447L199.423 128.561H198.011L197.83 131.281L191.981 131.409L191.986 131.41Z" fill="#C5FFBB"/>
        <path d="M194.464 137.906L192.59 139.266L192.162 140.026L192.029 140.787L192.718 141.282L195.018 141.249L196.497 140.849L196.663 141.577L196.53 142.537L197.943 143.231L198.238 143.564L200.112 143.631L200.178 142.803L198.466 140.748L196.559 138.166L195.375 137.671L194.462 137.904L194.464 137.906Z" fill="#C5FFBB"/>
        <path d="M192.932 141.72L192.87 142.248L196.161 142.2L196.328 141.71L196.257 141.216L195.311 141.601L192.933 141.72H192.932Z" fill="#C5FFBB"/>
        <path d="M192.885 142.614L193.475 144.045L193.803 143.161L197.803 143.579L196.072 142.69L192.886 142.614H192.885Z" fill="#C5FFBB"/>
        <path d="M193.745 144.663L194.411 145.98L196.28 144.373L196.299 143.878L194.099 143.559L193.747 144.659L193.745 144.663Z" fill="#C5FFBB"/>
        <path d="M194.61 146.286L196.056 148.511L197.939 146.875L199.87 146.789L201.477 148.924L202.842 149.824L203.355 148.824L203.811 148.567L203.778 146.367L202.87 143.761L200.083 144.07L196.635 143.794L196.616 144.679L194.609 146.279L194.61 146.286Z" fill="#C5FFBB"/>
        <path d="M196.28 148.753L198.967 151.353L200.883 149.028L199.683 147.15L198.033 147.316L196.278 148.757L196.28 148.753Z" fill="#C5FFBB"/>
        <path d="M199.247 151.634L204.468 155.124L204.344 152.48L202.766 150.621L201.225 149.257L199.247 151.634Z" fill="#C5FFBB"/>
        <path d="M204.906 155.23L206.941 153.789L209.471 153.347L212.053 153.903L210.736 151.91L210.351 150.693L210.736 147.093L208.43 147.203L207.384 146.203L205.184 146.26L204.138 146.427L204.247 148.862L203.695 149.085L203.034 150.302L204.734 152.295L204.901 155.229L204.906 155.23Z" fill="#C5FFBB"/>
        <path d="M198.91 140.531L200.375 139.531L208.516 139.483L206.633 126.383L208.782 126.321L219.182 134.257L220.582 134.457L220.054 138.87L213.515 139.464L208.469 143.23L207.551 145.808L204.051 145.955L203.157 143.382L200.47 143.572L200.57 142.73L198.911 140.53L198.91 140.531Z" fill="#C5FFBB"/>
        <path d="M213.712 139.789L215.443 139.651L218.282 143.665L215.646 145.652L213.739 145.162L211.176 145.195L210.762 146.695L208.613 146.8L208.023 146L208.784 143.556L213.71 139.79L213.712 139.789Z" fill="#C5FFBB"/>
        <path d="M218.61 143.461L219.823 143.433L220.917 141.792L222.752 141.464L224.707 142.657L228.877 142.776L232.101 141.464L233.314 140.422L233.405 139.053L235.654 136.785L236.249 131.778L234.77 128.678L230.985 127.755L222.226 134.584L220.984 134.465L220.452 139.206L215.982 139.654L218.611 143.463L218.61 143.461Z" fill="#C5FFBB"/>
        <path d="M210.741 150.617L211.273 151.868L212.661 154.046L213.431 154.017L215.531 152.824L215.384 146.024L213.758 145.548L211.48 145.61L210.738 150.61L210.741 150.617Z" fill="#C5FFBB"/>
        <path d="M215.911 152.615L217.186 151.868L217.157 146.946L216.329 145.605L215.797 146.052L215.911 152.614V152.615Z" fill="#C5FFBB"/>
        <path d="M217.575 151.777H218.583L218.64 148.914L219.914 147.065L219.857 143.845L218.702 143.817L216.719 145.367L217.546 146.946L217.575 151.777Z" fill="#C5FFBB"/>
        <path d="M218.935 151.72L220.799 151.81L223.048 154.316L224.142 154.616L224.998 154.197L226.298 154.016L226.741 152.2L228.514 151.035L230.435 150.945L233.954 144.473L233.897 143.013L232.271 141.763L229.018 143.194L224.667 143.132L222.593 141.82L221.115 142.148L220.345 143.489L220.288 147.274L219.047 149.034L218.933 151.721L218.935 151.72Z" fill="#C5FFBB"/>
        <path d="M225.278 107.952L227.908 106.892L228.773 107.453L228.806 108.138L228.406 108.666L228.468 109.603L228.868 109.822V111.505L228.402 112.285L228.464 112.785L230.228 113.408L228.806 115.62L228.249 115.586L228.149 117.364L227.531 117.459L227.003 116.993L227.127 115.186L225.396 113.502L225.177 112.037L226.014 111.381L225.272 107.952H225.278Z" fill="#C5FFBB"/>
        <path d="M227.722 117.796L228.464 117.673L228.683 115.961H229.054L230.571 113.469L234.314 114.558L235.336 116.146L239.017 117.829L240.934 117.021L240.748 116.213L239.911 115.405L240.011 114.844L241.371 113.694H244.063L245.085 115.063L247.249 115.377L247.53 132.919L245.923 132.857L236.213 127.807L235.162 128.402L231.172 127.402L230.088 125.97L228.509 125.751L227.709 124.319L227.732 117.795L227.722 117.796Z" fill="#C5FFBB"/>
        <path d="M247.637 115.432L248.906 115.465L251.379 116.15L252.554 116.183L254.009 114.966H254.689L255.926 115.651H257.491L257.771 115.632L258.76 118.476L259.041 119.394L259.302 120.768L258.836 121.111L258.036 120.711L257.109 117.687L256.272 117.625L256.21 118.652L256.767 120.431L261.223 125.947L261.318 128.315L260.018 129.815L247.825 129.677L247.64 115.44L247.637 115.432Z" fill="#C5FFBB"/>
        <path d="M233.781 140.607L233.843 139.207L236.097 137.015L236.697 131.632L235.197 128.76L236.249 128.223L246.425 133.523L246.363 138.723L244.57 140.25V142.932L245.744 145.205H243.671L240.238 148.605L240.147 149.632L237.612 149.599L237.579 150.065L236.133 149.875L235.144 148.006L234.402 147.64L234.502 147.069L235.434 146.355V143.017L234.146 142.817L232.591 141.661L233.784 140.61L233.781 140.607Z" fill="#C5FFBB"/>
        <path d="M246.791 138.91L246.877 133.284L248.047 133.317L247.914 130.193L260.182 130.302L261.937 128.533L265.722 134.587L263.649 137.031V140.764L260.387 147.778L259.264 148.272L259.621 150.227H261.021L262.921 152.981L261.4 153.175L261.009 153.884L260.971 154.906L256.406 154.825L255.94 154.116L252.749 153.935L246.89 147.905L247.475 147.553L247.632 146.136L246.232 145.309L244.953 142.784L245.024 140.435L246.798 138.909L246.791 138.91Z" fill="#C5FFBB"/>
        <path d="M226.662 154.056L228.193 155.463L228.083 157.641L236.483 157.441L237.168 156.67L234.762 154.078L234.405 153.141L235.937 150.273L234.895 148.373L234.02 147.902V146.937L235.033 146.276L235.09 143.271L234.29 143.181L234.276 144.759L230.747 151.345L228.588 151.455L227.109 152.473L226.667 154.052L226.662 154.056Z" fill="#C5FFBB"/>
        <path d="M264.177 139.989L264.058 137.189L265.941 134.989L266.45 135.379L267.377 138.479L271.828 141.794L271.02 142.788L267.763 139.988L264.177 139.989Z" fill="#C5FFBB"/>
        <path d="M271.2 143.24L270.929 144.84L272.812 144.811L272.84 142.462L272.151 142.039L271.2 143.239V143.24Z" fill="#C5FFBB"/>
        <path d="M260.742 148.102L264.204 140.402L267.642 140.421L270.69 143.07L270.476 145.253H272.839L273.081 146.565L276.904 148.853L279.263 148.972L274.779 153.789L268.621 155.689H267.095L264.375 153.368L263.3 152.916L261.217 149.849L259.842 149.868L259.681 148.46L260.741 148.108L260.742 148.102Z" fill="#C5FFBB"/>
        <path d="M273.226 144.906L275.166 146.228L275.741 146.199L280.558 144.544L281.105 146.308L280.719 147.796L279.678 148.624L277.078 148.457L273.354 146.17L273.226 144.905V144.906Z" fill="#C5FFBB"/>
        <path d="M284.582 142.343L285.595 143.475L286.964 142.647L287.459 142.481L286.831 141.872L285.631 142.229L284.585 142.343H284.582Z" fill="#C5FFBB"/>
        <path d="M280.943 144.435L283.021 143.635L283.758 144.077L283.677 145.922L281.76 151.381L271.389 162.489L270.189 161.662L270.108 156.973L271.668 155.18L274.978 154.157L279.833 149.031L281.103 147.899L281.46 146.244L280.946 144.432L280.943 144.435Z" fill="#C5FFBB"/>
        <path d="M235.145 153.946L237.361 156.346L238.236 155.214L239.629 155.271L239.929 154.171L241.298 153.316L244.142 155.275L245.783 153.649L252.15 153.929L246.244 147.829L247.038 147.334L247.148 146.259L245.807 145.626H243.838L240.666 148.769L240.557 150.063L238.041 149.982L237.96 150.534L236.319 150.367L234.84 153.177L235.145 153.948V153.946Z" fill="#C5FFBB"/>
        <path d="M223.295 160.176L223.842 159.9L224.251 160.232L223.842 160.864L223.347 160.67L223.295 160.175V160.176Z" fill="#C5FFBB"/>
        <path d="M224.394 158.44L225.217 158.302L225.493 158.825L225.084 159.268L224.675 159.211L224.395 158.441L224.394 158.44Z" fill="#C5FFBB"/>
        <path d="M226.196 155.544L225.977 156.481L226.633 156.838L227.261 156.367L227.042 155.402L226.195 155.545L226.196 155.544Z" fill="#C5FFBB"/>
        <path d="M230.736 158.025L230.679 159.209L227.997 159.152L226.356 162.324L230.213 166.542L231.169 165.742L231.141 164.914L230.485 164.614V164.034L231.963 163.097L233.276 164.09L234.726 164.119L234.697 159.13L232.397 159.02L232.368 157.974L230.732 158.026L230.736 158.025Z" fill="#C5FFBB"/>
        <path d="M228.17 158.055L228.141 158.716L230.3 158.825L230.272 158.079L228.172 158.056L228.17 158.055Z" fill="#C5FFBB"/>
        <path d="M232.929 157.973L232.9 158.663L235.173 158.72L235.254 164.62L233.176 164.563L231.976 163.626L231.044 164.149L231.001 164.411L231.481 164.644L231.619 165.857L230.335 166.957L230.611 167.537L232.033 166.437H232.718L232.937 167.098L233.837 167.483L236.737 165.03L236.68 163.237L237.28 161.777L239.139 160.398L239.639 155.733H238.317L236.786 157.833L232.925 157.971L232.929 157.973Z" fill="#C5FFBB"/>
        <path d="M230.813 167.822L231.641 168.897L232.711 167.884L232.397 166.833L232.131 166.814L230.813 167.822Z" fill="#C5FFBB"/>
        <path d="M232.159 169.002L237.059 168.916L238.053 170.328L238.015 171.369L238.381 171.702H240.816L241.516 170.328H242.51L242.91 170.737L244.275 170.699L244.675 175.492L247.034 175.568V175.939L253.373 178.797L253.668 179.354H254.995L254.848 177.347L252.448 176.196L252.595 174.674L253.627 172.259L255.985 172.183L253.959 165.459L253.997 162.601L257.202 157.589L257.24 156.889L256.76 156.628L256.779 155.268L256.194 155.216L255.604 154.465L245.927 154.028L244.153 155.754L241.248 153.843L240.226 154.47L239.484 160.714L237.648 162.131L237.096 163.386L237.196 165.245L233.886 167.951L233.006 167.551L233.125 168.069L232.145 169.006L232.159 169.002Z" fill="#C5FFBB"/>
        <path d="M255.194 161.483L256.53 162.714L256.473 164.031L254.4 164.074V162.619L255.194 161.483Z" fill="#C5FFBB"/>
        <path d="M254.429 164.484L256.46 164.441L255.932 166.22L255.418 166.667H254.79L254.343 165.467L254.429 164.488V164.484Z" fill="#C5FFBB"/>
        <path d="M255.422 161.097L256.863 162.447L257.763 161.871L260.207 161.471L260.625 161.514L260.782 160.587L262.162 157.687L261.001 155.271L257.24 155.295L257.216 156.289L257.716 156.774L257.64 157.768L255.414 161.097H255.422Z" fill="#C5FFBB"/>
        <path d="M261.381 155.12L262.646 157.588L261.129 160.769L260.929 161.734L268.504 166.419L270.854 162.728L269.665 161.763L269.642 156.903L271.13 155.277L268.757 156.066L266.965 156.09L264.159 153.722L263.271 153.343L261.631 153.495L261.341 153.98L261.379 155.121L261.381 155.12Z" fill="#C5FFBB"/>
        <path d="M261.257 176.472L269.564 175.455L267.695 171.84L267.595 168.379L268.195 166.724L260.295 161.759L257.817 162.168L256.957 162.805L256.881 164.255L256.325 166.267L255.745 166.957L254.913 167.033L256.506 172.554L259.106 173.776L260.899 173.828L261.256 176.472H261.257Z" fill="#C5FFBB"/>
        <path d="M244.128 182.786L245.635 184.878L247.97 185.021L248.798 185.477L251.242 185.505L253.348 182.552L259.235 179.918L259.749 177.597L259.064 174.273L255.992 172.523L253.942 172.666L252.92 174.929L252.948 175.961L255.364 177.136L255.507 179.69L253.429 179.804L252.916 178.944L247.143 176.481L246.972 178.374L244.243 178.46L244.129 182.787L244.128 182.786Z" fill="#C5FFBB"/>
        <path d="M231.798 169.477L233.419 175.531L233.381 177.442L231.008 179.991L230.651 184.133L239.781 184.214L242.749 185.289L245.198 184.97L243.771 183.182L243.776 178.075L246.581 177.956V175.963L244.303 175.869L243.846 171.151L242.886 171.165L242.367 170.7L241.801 170.728L241.05 172.183H238.159L237.488 171.507L237.688 170.551L236.899 169.396L231.799 169.477H231.798Z" fill="#C5FFBB"/>
        <path d="M259.635 180.267L261.114 181.813L261.086 183.791L261.371 184.623L263.335 182.502L263.107 179.802L262.056 179.002L261.119 174.27L259.497 174.213L260.234 177.623L259.634 180.267H259.635Z" fill="#C5FFBB"/>
        <path d="M256.787 196.378L258.066 197.438L261.081 195.603L261.566 192.878V188.378L266.402 184.421L267.23 184.45L270.159 181.639L269.703 175.847L261.937 176.826L262.166 178.576L263.502 179.608L263.816 182.761L261.201 185.314L260.573 183.883L260.688 181.991L259.181 180.355L255.481 182.077L258.924 183.826L259.038 188.926L256.76 192.307L256.788 196.373L256.787 196.378Z" fill="#C5FFBB"/>
        <path d="M248.935 186.401L253.2 191.218L256.472 192.05L258.664 188.612L258.493 184.056L254.936 182.22L253.599 182.82L251.607 185.858L248.849 185.829L248.934 186.395L248.935 186.401Z" fill="#C5FFBB"/>
        <path d="M235.568 200.504L237.161 200.618L238.098 201.565L240.319 201.593L240.861 195.288V191.16L242.283 190.875L242.825 186.548L246.44 186.434L247.719 185.373L245.555 185.287L242.626 185.687L239.469 184.541H230.595L230.823 187.061L233.781 191.417L233.267 193.652L233.296 194.826L235.569 200.504H235.568Z" fill="#C5FFBB"/>
        <path d="M241.256 195.398L242.278 195.711L242.136 198.636L243.187 198.778L245.603 196.6L248.503 196.914L249.273 194.965L252.944 191.612L248.536 186.538L248.479 185.706L247.994 185.564L246.658 186.796L243.187 186.882L242.702 191.209L241.337 191.523L241.256 195.399V195.398Z" fill="#C5FFBB"/>
        <path d="M256.644 196.72L255.451 196.92L254.937 198.32L255.85 199.152H256.958L257.895 197.806L256.645 196.717L256.644 196.72Z" fill="#C5FFBB"/>
        <path d="M250.243 202.136L251.693 201.019L252.378 201.047L253.205 202.079L253.119 203.111L251.726 203.624V204.024L250.19 203.938L249.819 202.821L250.242 202.136H250.243Z" fill="#C5FFBB"/>
        <path d="M253.454 191.79L249.697 195.261L248.803 197.406L245.827 197.035L243.35 199.235L241.705 199.073L241.838 196.03L241.254 195.83L240.845 202.055L237.925 202.027L237.045 200.99L235.756 200.976L236.931 204.347L239.031 206.33L237.531 208.075L238.501 210.262L240.745 211.118L242.533 209.597L247.655 209.625L248.021 209.168L250.294 208.768L257.983 201.112L257.955 198.701L257.132 199.766H255.902L254.402 198.51L255.163 196.617L256.471 196.35L256.352 192.46L253.452 191.79H253.454ZM251.654 200.59L252.372 200.561L253.537 201.826L253.503 203.29L252.138 203.98L252.053 204.465L249.97 204.489L249.319 202.92L249.913 201.769L251.653 200.59H251.654Z" fill="#C5FFBB"/>
        <path d="M152.151 23.659L151.504 24.691L152.669 25.856L152.15 27.021L153.834 29.221L155.902 28.574L158.617 28.317L161.722 31.679L163.79 37.238L162.112 40.728L164.437 40.338L165.73 41.113L165.858 42.796L163.014 42.925L164.565 44.475L166.505 44.865L162.24 50.552L161.722 54.042L162.622 56.886L161.975 58.57L163.14 62.189L165.34 64.647L165.987 64.519L167.409 64.129L167.537 66.197L168.437 67.491L170.115 67.363L171.408 62.579L175.288 57.795L181.108 55.47L184.727 50.943L186.406 51.718H189.896L192.74 48.874L196.23 47.453L196.62 45.253L194.42 43.313L192.48 42.666L191.444 39.951L193.902 38.529L197.783 40.598L199.076 39.176L197.008 38.011L201.408 32.063L200.632 29.476L198.564 29.348L199.339 27.023L201.926 25.858L207.226 21.203L205.676 19.525L199.727 20.043L196.621 23.148L198.433 19.139L196.364 18.62L195.199 20.689L193.521 19.267L188.865 19.785L190.158 17.716L197.786 17.459L195.846 14.872L187.572 13.322L184.21 13.84L184.338 15.524L180.848 14.359L180.976 13.194L178.518 13.712L177.999 15.006L180.586 15.906L177.87 17.846L175.93 15.646L173.215 14.871L172.825 16.939H170.11L169.074 14.739L164.808 14.092L162.483 15.257L162.354 16.808L159.382 16.418L157.57 17.193L157.699 19.005V19.905L154.337 20.552L152.787 19.52L151.75 21.198L153.3 22.882L156.534 22.492L156.791 23.529L154.333 24.694L152.141 23.648L152.151 23.659Z" fill="#C5FFBB"/>
        <path d="M162.498 43.832L163.273 44.997L162.883 46.419H162.108L161.072 45.253L161.329 44.353L162.499 43.835L162.498 43.832Z" fill="#C5FFBB"/>
        <path d="M194.825 40.598L197.025 41.245L196.897 43.057L194.572 41.892L194.054 41.245L194.829 40.598H194.825Z" fill="#C5FFBB"/>
        <path d="M184.197 296.101L186.018 293.671L193.099 290.028L194.311 287.399L197.345 286.79L200.179 283.147L203.013 282.947L203.622 280.113L206.052 278.292L208.078 278.9L213.946 277.079L215.363 278.496L217.993 278.696L220.423 277.483L234.993 277.283L240.253 278.7L246.929 277.283L249.155 277.483L249.764 275.457H251.989L255.023 278.695L260.691 275.053L266.964 273.232L269.189 274.649L269.389 271.815L272.628 271.415L276.066 273.031V274.648L284.766 278.291L287.196 278.091L288.209 279.304L285.375 282.542V284.767L288.005 286.184L288.614 284.767L300.554 280.111L309.254 279.303L311.076 280.316L317.957 281.329L319.574 281.938L321.8 280.725L325.038 280.525L328.072 282.75L328.272 285.18L335.153 283.763L336.166 284.163L336.566 286.388L342.838 288.414L344.864 286.997L345.064 288.818L347.29 289.018L350.324 291.448L353.158 290.235L355.588 290.435H357.409L358.622 290.235L358.822 293.473L362.869 295.903L184.174 296.103L184.197 296.101Z" fill="#C5FFBB"/>
        <path d="M123.086 296.101L129.563 294.279L129.963 292.458L136.844 290.841L140.891 291.854L149.791 288.212L149.591 284.369L146.961 280.322L147.57 279.309L146.557 276.679V273.845H148.174L147.161 271.819L154.446 265.547L154.246 268.381L152.829 268.781L151.412 271.211L152.829 271.819L151.412 273.845L149.795 273.445L148.987 275.266L149.187 277.696L151.617 277.496L153.234 279.721L153.842 282.555L157.081 286.602L157.281 291.662L156.068 292.27L157.081 294.9L156.473 295.913L123.081 296.103L123.086 296.101Z" fill="#C5FFBB"/>
        <path d="M118.431 292.458L120.861 292.058L121.874 292.866L121.474 293.879L121.274 295.091L119.857 295.699L118.844 294.486H114.797V293.677L116.618 293.277L118.439 292.464L118.431 292.458Z" fill="#C5FFBB"/>
        <path d="M144.333 279.305L142.307 279.705L143.52 281.931L144.937 282.54L144.329 283.753V284.562L140.482 285.575L140.882 286.788L142.499 287.397L144.32 285.98L145.937 286.38L144.924 287.997L145.532 288.397L147.354 287.589L148.771 284.959L144.33 279.295L144.333 279.305Z" fill="#C5FFBB"/>
        <path d="M140.082 288.412L138.465 289.829L139.882 290.229L141.703 290.629L143.524 289.417L141.703 289.017L140.082 288.409V288.412Z" fill="#C5FFBB"/>
        <path d="M151.409 264.468L150.225 264.706L149.964 265.919L152.227 265.586L151.409 264.468Z" fill="#C5FFBB"/>
        <path d="M153.321 262.6L151.899 262.871L152.17 263.971L153.901 263.909L153.321 262.601V262.6Z" fill="#C5FFBB"/>
        <path d="M155.579 264.801L155.589 266.494L156.564 266.537L157.353 265.281L155.58 264.801H155.579Z" fill="#C5FFBB"/>
        <path d="M156.051 260.079L155.024 260.479L154.763 261.449L155.652 261.772L157.145 260.746L156.051 260.075V260.079Z" fill="#C5FFBB"/>
        <path d="M361.403 203.367L361.237 215.436L359.383 216.795L359.217 217.984L361.747 219.684L367.991 218.495H371.196L372.375 216.795L379.46 215.435L384.52 216.967L384.182 219.007L384.857 221.047L388.738 220.366L388.904 221.384L386.374 223.252L387.217 223.932L389.071 223.252L388.571 228.863L392.114 231.584L394.14 230.904L395.153 231.922L401.059 231.071L406.628 222.06L408.653 221.551L412.7 214.071L413.713 207.613L411.183 204.384L412.196 203.703L410.171 197.412L407.978 195.881L408.316 187.381L406.29 185.85L405.79 181.09H404.778L401.402 192.308L399.548 192.479L395.33 188.228L397.693 181.937L393.309 181.086L388.416 182.446L387.065 186.355L384.872 186.864L384.706 184.144L375.765 189.584L375.932 191.624L374.582 193.492H371.206L363.949 196.549L361.414 203.369L361.403 203.367Z" fill="#C5FFBB"/>
        <path d="M392.108 235.837L391.266 239.237L391.433 241.614L393.963 241.443L396.83 237.025L392.108 235.836V235.837Z" fill="#C5FFBB"/>
        <path d="M433.613 229.037L434.113 234.648L433.438 237.197L430.908 239.066L431.075 241.277V243.655L431.75 244.506L438.669 238.557V237.197H436.981L434.617 229.208L433.609 229.036L433.613 229.037Z" fill="#C5FFBB"/>
        <path d="M428.553 241.277L429.904 243.826L426.19 247.398L425.852 249.267L423.322 249.605L419.104 253.514L415.223 251.645L414.886 250.285L421.971 247.228L428.552 241.279L428.553 241.277Z" fill="#C5FFBB"/>
        <path d="M430.578 199.796L430.412 200.648L432.604 203.706L433.783 204.215L433.95 203.026L430.578 199.797V199.796Z" fill="#C5FFBB"/>
        <path d="M343.005 150.864L342.872 151.948L346.101 157.374H347.042L353.771 168.63L356.463 168.901L357.809 164.969L355.654 163.613L355.254 161.445L343.009 150.864H343.005Z" fill="#C5FFBB"/>
        <path d="M362.815 158.164L364.251 159.824L369.758 157.917L370.847 153.717L373.301 153.541L375.545 151.914L372.635 149.793L371.969 148.628L370.533 151.277L371.06 152.798L370.185 154.068L368.535 153.645L364.535 156.579L364.635 158.279L362.809 158.169L362.815 158.164Z" fill="#C5FFBB"/>
        <path d="M370.248 151.663L368.878 153.322L370.001 153.674L370.634 152.789L370.249 151.662L370.248 151.663Z" fill="#C5FFBB"/>
        <path d="M374.89 165.863L375.964 167.18L375.264 169.159V169.534H376.852L377.413 164.588L377.927 164.731L378.859 169.248L379.749 169.486L380.591 167.555L379.749 164.635L379.049 163.365L381.249 161.765L380.735 161.056L378.635 162.421H378.074L377.047 160.914L377.375 160.253L379.106 159.407L381.721 160.207L382.515 160.159L384.479 158.323L383.685 157.523L381.864 158.935H380.694L378.92 158.088L377.66 158.136L376.26 160.395L375.371 164.304L374.895 165.864L374.89 165.863Z" fill="#C5FFBB"/>
        <path d="M386.617 157.013L385.727 159.177L387.127 161.013H387.593L388.202 159.791L388.53 159.368L387.922 158.707L387.033 158.379L386.615 157.014L386.617 157.013Z" fill="#C5FFBB"/>
        <path d="M389.374 164.122L387.458 164.545L386.897 165.158L387.363 165.958L388.623 165.488L389.417 165.017L390.587 165.959L391.101 165.535L390.169 164.404L389.375 164.123L389.374 164.122Z" fill="#C5FFBB"/>
        <path d="M357.599 170.242L356.291 171.136L356.571 171.887L360.732 172.828L362.832 173.204L363.721 174.146L366.103 174.336L367.226 175.278L368.254 175.04L369.191 174.193L367.46 173.393L365.966 172.123L362.086 171.182L357.597 170.241L357.599 170.242Z" fill="#C5FFBB"/>
        <path d="M371.199 174.336L370.172 174.902L370.78 175.563L372.273 174.997L371.198 174.336H371.199Z" fill="#C5FFBB"/>
        <path d="M372.973 173.913L373.158 174.807L374.233 175.087L374.651 174.569L374.185 173.861L372.972 173.913H372.973Z" fill="#C5FFBB"/>
        <path d="M375.542 176.267L374.234 176.457L375.404 177.446H376.336L375.542 176.267Z" fill="#C5FFBB"/>
        <path d="M375.917 174.712L375.636 175.278L377.736 175.606L379.372 174.665L378.44 174.384L376.947 174.807L376.386 174.336L375.916 174.712H375.917Z" fill="#C5FFBB"/>
        <path d="M382.787 175.045L380.358 177.071L380.591 177.589L381.618 177.399L382.831 176.268L385.213 175.94L384.747 175.14L382.788 175.04L382.787 175.045Z" fill="#C5FFBB"/>
        <path d="M418.139 165.81L417.72 166.405L420.007 168.431L420.321 169.62L420.944 169.549L421.016 168.327L420.322 167.699L418.14 165.811L418.139 165.81Z" fill="#C5FFBB"/>
        <path d="M419.285 168.678L418.834 168.778L418.558 170L417.693 170.561L415.093 171.018L415.193 171.997L417.932 171.859L419.668 170.775L419.568 168.887L419.287 168.673L419.285 168.678Z" fill="#C5FFBB"/>
        <path d="M422.371 170.807L422.961 172.448L424.002 173.461L424.316 173.18L424.216 172.096L423.036 170.665L422.375 170.807H422.371Z" fill="#C5FFBB"/>
        <path d="M425.248 173.252L425.32 174.336L425.981 174.964L426.604 174.579L426.048 173.423L425.248 173.252Z" fill="#C5FFBB"/>
        <path d="M426.08 175.943L425.524 176.538L426.114 177.622L426.808 177.831L426.775 177.099L426.081 175.943H426.08Z" fill="#C5FFBB"/>
        <path d="M427.436 175.319L427.921 176.508L428.858 177.625L429.377 176.788L428.683 175.599L427.437 175.319H427.436Z" fill="#C5FFBB"/>
        <path d="M429.863 177.099L430.139 178.568L430.8 179.476L431.356 178.325L429.862 177.098L429.863 177.099Z" fill="#C5FFBB"/>
        <path d="M430.626 180.385L430.384 180.804L431.184 181.855L431.74 181.888L431.393 180.523L430.627 180.385H430.626Z" fill="#C5FFBB"/>
        <path d="M428.857 182.478L428.025 182.863L428.753 183.876L429.376 183.524L428.857 182.478Z" fill="#C5FFBB"/>
        <path d="M437.346 188.74L436.756 189.529L437.004 190.419L437.298 190.619L437.836 189.925L437.346 188.741V188.74Z" fill="#C5FFBB"/>
        <path d="M437.64 191.161L437.688 191.804L438.325 192.004L438.768 191.756L438.325 191.062L437.641 191.162L437.64 191.161Z" fill="#C5FFBB"/>
        <path d="M438.573 196.896L438.278 197.343L438.72 197.838L439.457 197.591L438.573 196.897V196.896Z" fill="#C5FFBB"/>
        <path d="M450.541 195.906L449.951 196.695L449.903 197.584L450.588 198.278L450.541 195.905V195.906Z" fill="#C5FFBB"/>
        <path d="M374.813 141.329L374.404 142.109L374.176 143.069L371.903 145.956L372.041 146.55L372.997 146.412L375.95 143.112L374.814 141.329H374.813Z" fill="#C5FFBB"/>
        <path d="M378.494 140.236L378.446 142.618L379.312 143.488L379.63 145.181L380.496 145.367L380.905 144.311L380.225 143.811L380.044 140.834L378.494 140.24V140.236Z" fill="#C5FFBB"/>
        <path d="M380.953 141.154L380.905 143.26L381.405 144.083L382.27 143.074L382.042 141.243L380.953 141.153V141.154Z" fill="#C5FFBB"/>
        <path d="M381.494 139.321L382.36 140.467L382.768 141.567H383.544L383.406 139.689L382.54 139.094L381.494 139.322V139.321Z" fill="#C5FFBB"/>
        <path d="M383.178 143.627L383.358 145.001L381.765 146.285L380.447 146.423L379.04 147.935L379.088 148.625L380.405 148.211L381.313 147.617L382.088 149.586L383.453 150.547L384 150.361L384.5 149.766L383.412 148.666L384.049 148.166L384.777 148.761L385.277 147.938L384.777 146.93L384.686 144.685L383.179 143.629L383.178 143.627Z" fill="#C5FFBB"/>
        <path d="M375.769 129.66L374.542 130.53L374.404 133.279L376.316 136.988L376.953 137.488L377.77 136.936L379.178 137.164L379.449 138.401L380.495 138.491L380.995 137.806L380.358 136.936L379.583 136.204L377.947 136.023L377.081 134.601L378.081 133.089L378.171 131.762L377.491 130.069L375.769 129.656V129.66Z" fill="#C5FFBB"/>
        <path d="M376.406 137.854L376.768 139.138L377.405 139.552L377.862 138.957L377.134 137.949L376.406 137.849V137.854Z" fill="#C5FFBB"/>
        <path d="M360.767 128.324L359.631 128.642L358.813 129.65L359.494 130.977L360.494 131.067L361.63 130.059L361.901 128.732L360.769 128.323L360.767 128.324Z" fill="#C5FFBB"/>
        <path d="M373.901 117.929L372.217 119.213L372.127 121.686L373.582 123.379L373.944 123.06L373.901 117.929Z" fill="#C5FFBB"/>
        <path d="M381.405 102.764L380.629 103.544L380.948 104.644L381.628 104.692L382.084 107.074L382.631 107.669L383.587 106.799L383.996 105.24L382.812 103.547L381.405 102.767V102.764Z" fill="#C5FFBB"/>
        <path d="M385.589 101.209L384.272 102.446L384.224 103.868L384.543 104.282L386.317 102.77L386.179 101.258L385.589 101.211V101.209Z" fill="#C5FFBB"/>
        <path d="M383.767 98.275L381.446 100.933L381.855 101.575L382.992 101.713L385.127 100.063L386.627 99.787L387.992 101.387L389.038 101.021L389.447 99.462L391.401 99.414L393.313 97.122L392.313 93.322L391.856 91.306L392.856 90.484L390.583 87.051L389.993 87.098L388.766 88.472V89.618L389.313 90.26L389.494 93.284L388.087 95.024L387.269 94.524L386.632 95.946L386.494 97.273L386.994 98.053L386.676 98.647L385.63 97.777H384.902L384.265 98.143L383.765 98.281L383.767 98.275Z" fill="#C5FFBB"/>
        <path d="M387.681 77.571L386.954 78.213L387.32 79.588L387.957 80.23L387.91 82.336L387.093 82.655L386.455 84.077L388.319 86.64L389.546 86.227L389.774 85.585L388.457 84.396L389.275 83.34L390.14 83.478L390.82 84.21L390.867 82.698L392.732 81.186L393.778 80.91L392.913 79.445L392.505 78.803L391.825 79.26L391.235 79.992L389.96 79.716L388.643 78.846L387.682 77.572L387.681 77.571Z" fill="#C5FFBB"/>
        <path d="M394.544 76.149L393.269 77.937L393.359 78.807L393.996 78.531L395.496 76.653L394.545 76.153L394.544 76.149Z" fill="#C5FFBB"/>
        <path d="M396.226 73.538L395.77 74.774L395.817 75.596L396.592 75.096L397.32 73.631V73.084L396.226 73.541V73.538Z" fill="#C5FFBB"/>
        <path d="M398.909 62.634L398.319 63.366L398.367 64.512L398.914 64.464L399.822 62.864L398.909 62.636V62.634Z" fill="#C5FFBB"/>
        <path d="M397.819 65.431V67.447L398.456 67.675L398.912 66.942V65.387L397.818 65.43L397.819 65.431Z" fill="#C5FFBB"/>
        <path d="M379.222 58.145L379.18 61.079L382.861 66.762L384.178 71.708L386.499 76.108L387.407 76.426L388.182 75.784L388.543 74.728L385.224 71.109L385.314 69.231L386.042 68.912L386.223 67.812L379.723 58.606L379.223 58.145H379.222Z" fill="#C5FFBB"/>
        <path d="M404.867 49.029L403.959 49.119L404.506 49.899L405.642 50.679L405.961 50.313L404.867 49.029Z" fill="#C5FFBB"/>
        <path d="M406.636 49.581L406.774 50.361L408.182 50.774L408.32 50.223L406.636 49.581Z" fill="#C5FFBB"/>
        <path d="M414.363 52.572L414.957 53.637L415.946 53.571L416.146 52.839L414.363 52.573V52.572Z" fill="#C5FFBB"/>
        <path d="M424.335 54.237L425.129 55.702L425.723 55.036V54.036L424.335 54.236V54.237Z" fill="#C5FFBB"/>
        <path d="M431.134 49.576L430.012 51.041L430.273 51.707L431.661 50.841L431.795 49.976L431.134 49.576Z" fill="#C5FFBB"/>
        <path d="M436.746 44.987L435.757 46.187L436.812 46.587L436.746 44.987Z" fill="#C5FFBB"/>
        <path d="M438.135 42.99L437.474 44.055L437.541 45.12L438.463 44.72L438.135 42.989V42.99Z" fill="#C5FFBB"/>
        <path d="M418.525 18.105L417.402 18.837L417.136 19.769L417.664 20.369L418.853 19.969L420.042 20.369L420.703 20.569L420.637 18.369L418.525 18.102V18.105Z" fill="#C5FFBB"/>
        <path d="M32.3361 25.22L33.981 28.296L35.037 28.058V26.998L32.337 25.224L32.3361 25.22Z" fill="#C5FFBB"/>
        <path d="M419.528 8.19102L417.521 11.791L421.364 14.221L425.664 10.612L428.279 14.972L425.55 15.533L424.47 18.333L430.514 26.522L434.152 27.122L439.397 28.154L440.044 26.254L441.875 26.954L442.222 34.919L438.831 40.563L440.467 40.92L444.737 31.92L446.037 25.186L443.403 23.954L442.979 14.919L445.01 15.313L444.991 20.748L447.207 22.683L448.5 17.961L447.463 15.155L450.592 16.655L450.92 0.0159721L414.894 0.0829887L412.821 1.67601L413.101 4.895L419.488 5.77L424.388 4.653L422.629 7.94401L419.529 8.18602L419.528 8.19102Z" fill="#C5FFBB"/>
        <path d="M0 25.98L6.66199 26.727L7.77502 29.027L13.082 25.917L21.964 24.676L22.582 20.076L27.024 18.459L29.9241 15.725V19.453L32.886 23.495L39.0531 19.582L36.092 16.227L32.3921 6.22198L27.946 1.12201L24.7981 0.875L24.675 3.60901L22.083 4.91699L21.2831 3.29999L22.8241 0L0.0650635 0.0620117L0.00305176 25.978L0 25.98Z" fill="#C5FFBB"/>
        <path d="M36.768 1.42899L34.918 3.10801L35.4741 4.34897L36.4641 3.66397L37.0201 4.28702L38.8651 3.60703L38.803 2.551L36.768 1.42899Z" fill="#C5FFBB"/>
        <path d="M23.0591 52.278L22.978 53.71L24.0051 53.472V52.835L23.0591 52.278Z" fill="#C5FFBB"/>
        <path d="M21.479 52.919L19.425 53.956L19.744 55.069L20.5331 54.432L22.1121 53.714L21.4801 52.92L21.479 52.919Z" fill="#C5FFBB"/>
        <path d="M12.944 54.27L11.522 53.951L11.284 54.588L11.441 55.782L12.941 54.27H12.944Z" fill="#C5FFBB"/>
        <path d="M9.93811 54.193L8.59204 53.637L8.11609 54.512L8.98608 55.387L9.93701 54.193H9.93811Z" fill="#C5FFBB"/>
        <path d="M5.27905 52.919L4.64697 52.044L4.01501 52.282V53.479L4.72803 53.954L5.28003 52.922L5.27905 52.919Z" fill="#C5FFBB"/>
        <path d="M0.143005 47.265L0.932068 47.821L0.694031 48.458H0.143005V47.264V47.265Z" fill="#C5FFBB"/>
        <path d="M295.585 237.434L295.514 239.474L298.338 240.13L298.989 238.451L297.977 238.741L296.677 239.032L296.316 237.5L295.588 237.433L295.585 237.434Z" fill="#C5FFBB"/>
        <path d="M290.948 189.582L290.226 190.528L290.368 191.55L291.89 190.309L290.948 189.582Z" fill="#C5FFBB"/>
        <path d="M288.271 191.189L287.187 191.26L287.116 192.206L287.838 192.354L288.922 191.845L288.271 191.189Z" fill="#C5FFBB"/>
        <path d="M281.101 177.185L280.088 179.592L278.352 182.654L275.314 182.873L274.014 184.404L274.233 189.074L272.35 191.262L272.569 194.981L274.162 196.802L276.045 196.583L277.928 195.195L277.495 193.007L281.837 185.494L280.967 184.548L281.837 182.726L282.779 183.016L283.069 182.289L282.199 178.57L281.691 177.039L281.106 177.186L281.101 177.185Z" fill="#C5FFBB"/>
        <path d="M274.153 176.381L274.372 177.108L275.313 177.256L275.674 176.31L274.153 176.381Z" fill="#C5FFBB"/>
        <path d="M275.527 177.841L275.888 178.641H276.468L276.758 177.618L275.526 177.837L275.527 177.841Z" fill="#C5FFBB"/>
        <path d="M285.88 170.252L285.59 170.837L286.384 171.493L286.964 170.837L285.88 170.252Z" fill="#C5FFBB"/>
        <path d="M289.935 165.877L289.065 166.462L289.716 167.484H290.586L289.935 165.877Z" fill="#C5FFBB"/>
        <path d="M290.297 168.43L289.717 169.086L290.15 169.742L290.944 169.89L291.016 168.502L290.298 168.431L290.297 168.43Z" fill="#C5FFBB"/>
        <path d="M311.582 152.381L311.724 153.623L312.518 153.913L312.66 152.819L311.581 152.381H311.582Z" fill="#C5FFBB"/>
        <path d="M312.595 155.006L312.523 156.537L313.103 156.827L313.612 155.804L312.595 155.004V155.006Z" fill="#C5FFBB"/>
        <path d="M312.742 157.997L312.233 158.506L312.813 159.015L313.535 158.506L312.741 157.997H312.742Z" fill="#C5FFBB"/>
        <path d="M176.645 103.05L175.999 103.701L177.159 104.352L177.288 103.444L176.646 103.049L176.645 103.05Z" fill="#C5FFBB"/>
        <path d="M180.131 102.66L179.356 103.178L180.003 103.696L181.035 103.435L180.135 102.66H180.131Z" fill="#C5FFBB"/>
        <path d="M180.645 104.481L180.26 105.523L180.774 106.174L181.421 105.656L180.645 104.481Z" fill="#C5FFBB"/>
        <path d="M183.741 106.559L183.484 107.21L183.869 107.6L184.901 106.949L183.741 106.559Z" fill="#C5FFBB"/>
        <path d="M193.545 112.275L193.031 112.927L193.545 113.578L194.32 113.188L193.545 112.275Z" fill="#C5FFBB"/>
        <path d="M197.084 120.506L196.252 120.986L196.637 121.376L197.084 120.506Z" fill="#C5FFBB"/>
        <path d="M194.193 120.597L193.161 120.859L193.675 121.639H194.45L194.194 120.597H194.193Z" fill="#C5FFBB"/>
        <path d="M191.739 119.817L191.092 120.468L191.992 121.248L192.505 120.078L191.735 119.816L191.739 119.817Z" fill="#C5FFBB"/>
        <path d="M183.74 138.011L182.84 138.529L183.487 139.047L184.262 138.657L183.744 138.01L183.74 138.011Z" fill="#C5FFBB"/>
        <path d="M185.961 139.057L185.371 139.58L185.79 140.355L186.798 139.903L185.961 139.057Z" fill="#C5FFBB"/>
        <path d="M184.672 140.526L183.916 140.977L184.729 142.066L185.371 141.728L184.671 140.528L184.672 140.526Z" fill="#C5FFBB"/>
        <path d="M4.19904 118.115L4.13202 119.223L5.10199 119.874L5.68207 119.356L4.19806 118.115H4.19904Z" fill="#C5FFBB"/>
        <path d="M6.71497 119.745L5.81506 120.396L6.58997 121.371L7.48999 120.591L6.71497 119.744V119.745Z" fill="#C5FFBB"/>
        <path d="M8.52612 121.305L7.7511 122.347L8.00806 122.998L9.10803 122.48L8.52808 121.305H8.52612Z" fill="#C5FFBB"/>
        <path d="M9.81506 123.322L9.36304 125.922L9.81506 126.897L11.2991 126.44L12.0741 125.14L10.457 123.64L9.81506 123.322Z" fill="#C5FFBB"/>
        <path d="M12.4021 191.337L11.5021 191.27L11.4351 192.117L12.144 192.573L12.9861 192.055L12.406 191.337H12.4021Z" fill="#C5FFBB"/>
        <path d="M15.5031 192.25L14.209 193.097L15.179 194.267L16.021 194.067L16.473 193.483L15.5031 192.246V192.25Z" fill="#C5FFBB"/>
        <path d="M130.976 134.605L130.262 134.905L130.514 135.537L131.351 134.99L131.184 134.819L130.975 134.61L130.976 134.605Z" fill="#C5FFBB"/>
        <path d="M132.149 135.319L131.731 136.208L132.231 136.883L132.859 136.336L132.145 135.318L132.149 135.319Z" fill="#C5FFBB"/>
        <path d="M133.575 137.768L133.075 138.234L133.451 138.995L134.164 138.786L133.579 137.768H133.575Z" fill="#C5FFBB"/>
        <path d="M133.534 139.67L133.196 140.388L133.743 140.977L134.456 140.597L133.534 139.67Z" fill="#C5FFBB"/>
        <path d="M133.577 141.487L132.992 141.91L133.453 142.757L134.209 142.334L133.576 141.488L133.577 141.487Z" fill="#C5FFBB"/>
        <path d="M132.863 143.132L132.316 143.679L132.525 144.017H133.195L133.404 143.465L132.862 143.132H132.863Z" fill="#C5FFBB"/>
        <path d="M133.662 144.782L133.162 145.248L132.615 145.333V146.009L133.623 146.936L134.042 146.261L134.294 145.5L134.208 144.868L133.666 144.782H133.662Z" fill="#C5FFBB"/>
        <path d="M128.336 133.503L127.081 133.08L126.073 133.712L126.573 134.301L128.29 134.553L128.332 133.502L128.336 133.503Z" fill="#C5FFBB"/>
        <path d="M118.74 130.802L117.946 131.615L118.854 131.986L118.987 133.123L116.976 133.299L117.176 134.393L117.761 134.436L118.099 133.936L120.449 134.012L120.872 134.825L121.414 134.188L122.997 133.76L124.39 134.055L124.552 133.213L122.041 131.573L120.415 130.964L118.736 130.807L118.74 130.802Z" fill="#C5FFBB"/>
        <path d="M124.561 133.208L122.045 131.562L120.856 131.162L120.456 134.015L120.874 134.815L121.421 134.183L123.014 133.76L124.398 134.055L124.56 133.208H124.561Z" fill="#C5FFBB"/>
        <path d="M118.735 130.802L120.371 130.973L120.176 132.979L120.014 134.035L118.107 133.935L117.769 134.444L117.184 134.401L116.975 133.301L118.986 133.134L118.863 131.993L117.941 131.613L118.735 130.805V130.802Z" fill="#C5FFBB"/>
        <path d="M145.884 241.505L144.633 241.367L143.387 242.204L144.287 243.183L145.88 241.504L145.884 241.505Z" fill="#C5FFBB"/>
        <path d="M147.129 240.878L146.716 242.205L145.537 243.251L145.608 243.598L147.619 242.827L148.451 241.781L147.129 240.881V240.878Z" fill="#C5FFBB"/>
        <path d="M192.681 55.635L191.749 55.107L190.493 55.901L189.414 56.901L189.442 57.457L190.842 57.633L190.756 58.633L190.261 59.133L190.38 59.456L191.78 59.546V61.163L193.792 61.515L194.986 62.19L196.327 62.247L198.627 61.101L200.405 58.752L200.433 57.163L199.353 56.25L198.453 55.484L198.044 55.779L197.43 56.573L196.73 56.483L196.03 55.717L195.13 55.803L193.818 56.892L193.029 57.744L192.591 57.363L192.562 56.422L192.999 56.127L192.686 55.637L192.681 55.635Z" fill="#C5FFBB"/>
        <path d="M231.626 25.509L230.842 24.72L229.102 25.567H225.902L225.402 27.431L227.195 29.015L227.979 28.9L229.102 26.979L230.053 27.659L229.378 29.014L229.04 30.992L229.824 32.233L231.507 29.408L233.695 26.75L232.853 26.018L231.626 25.509Z" fill="#C5FFBB"/>
        <path d="M232.577 22.119L231.177 23.419L232.019 24.719H233.531L234.149 25.565L235.999 26.526L238.129 25.285L239.589 24.044L239.089 23.026L237.629 22.18L236.564 23.14L235.836 22.24L235.275 22.297L234.547 23.88L233.482 22.805L233.368 22.073L232.583 22.125L232.577 22.119Z" fill="#C5FFBB"/>
        <path d="M235.772 27.94L234.65 28.958L233.699 29.69L234.146 30.479L235.046 30.759L236.506 30.079L237.181 29.233L236.562 28.215L235.773 27.939L235.772 27.94Z" fill="#C5FFBB"/>
        <path d="M259.949 18.295L260.767 18.623L260.192 19.613V21.013L258.965 21.755H257.657L256.92 20.847L257.001 19.858L257.577 19.116H258.723L259.95 18.294L259.949 18.295Z" fill="#C5FFBB"/>
        <path d="M263.059 17.388V18.377L263.877 19.038L265.023 18.957L266.007 18.049V17.388H265.107L264.37 17.635L263.795 16.974L263.058 17.388H263.059Z" fill="#C5FFBB"/>
        <path d="M267.728 17.473L268.303 18.709L269.449 18.79L270.267 18.462L269.858 17.306L268.793 17.059L267.728 17.473Z" fill="#C5FFBB"/>
        <path d="M272.394 15.823L271.494 15.657L270.676 16.484L271.085 17.226L271.332 18.382L272.397 17.559L272.644 16.651L272.393 15.823H272.394Z" fill="#C5FFBB"/>
        <path d="M277.387 24.568L277.139 25.724L275.256 27.374L271.243 28.282L267.966 33.727L267.391 35.296L270.668 36.124L271.158 34.145L272.142 31.092L274.682 29.77L276.812 28.12L278.367 27.459H279.185V25.233L277.385 24.567L277.387 24.568Z" fill="#C5FFBB"/>
        <path d="M266.826 36.613L269.037 36.86L269.774 39.418L271.657 41.396L271.001 42.718H269.855L268.79 41.481L266.417 41.4L265.433 40.078V39.17L266.907 38.756L266.826 36.612V36.613Z" fill="#C5FFBB"/>
        <path d="M301.382 8.48099L300.317 7.81998H299.09L298.843 8.56198L297.535 9.30399L296.55 9.63199L296.388 10.621L298.68 10.788L301.38 8.48203L301.382 8.48099Z" fill="#C5FFBB"/>
        <path d="M303.916 8.72797L303.341 9.96399L302.195 9.883L300.395 11.205L299.905 12.855H301.051L301.707 11.78L303.262 12.936L304.736 12.275L305.801 11.367L305.392 9.96698L304.816 8.97797L303.916 8.73102V8.72797Z" fill="#C5FFBB"/>
        <path d="M306.294 9.63602L306.869 11.947L307.769 14.092L308.754 12.361L310.637 11.947V10.711L309.41 9.80302L306.295 9.63602H306.294Z" fill="#C5FFBB"/>
        <path d="M351.223 5.93698L352.502 7.01199L353.41 6.63602L353.676 5.129L351.812 3.84L350.585 4.64798L347.599 4.91898V6.26498L344.451 6.31699V8.517L348.132 11.256L349.093 10.556L348.879 8.621L351.228 8.03098L350.748 7.11801L349.896 6.25699L351.223 5.93399V5.93698Z" fill="#C5FFBB"/>
        <path d="M354.637 4.648L355.488 6.26L358.798 5.88402L359.706 4.7L359.493 3.67699L358.585 3.30101L357.734 3.94799L355.28 4.48497L354.638 4.64702L354.637 4.648Z" fill="#C5FFBB"/>
        <path d="M354.423 10.935L352.768 10.507L351.812 11.529L351.384 12.929L353.624 12.715L355.331 11.855L354.423 10.937V10.935Z" fill="#C5FFBB"/>
        <path d="M397.31 1.63802L395.922 1.20998L394.322 1.8L393.522 2.98402L394.535 4.32997L397.203 3.14601L397.736 2.55598L397.308 1.63802H397.31Z" fill="#C5FFBB"/>
        <path d="M323.061 146.337L323.18 147.63L323.299 148.572L322.599 148.691L322.95 150.807L324.001 151.397L325.632 150.455L325.166 148.224L325.285 147.402L323.769 145.994L323.06 146.336L323.061 146.337Z" fill="#C5FFBB"/>
        <path d="M104.465 126.778V127.378L106.995 127.426L108.189 126.732L108.374 127.241L110.856 127.841L113.062 129.833L112.562 130.527L112.652 131.317L114.492 131.778L116.332 130.946L117.16 130.114L115.966 129.514L109.808 125.9L107.649 125.667L104.468 126.775L104.465 126.778Z" fill="#C5FFBB"/>
        <path d="M113.386 123.074L112.786 122.889L112.738 124.044L113.476 124.786L113.976 124.044L113.382 123.074H113.386Z" fill="#C5FFBB"/>
        <path d="M114.58 124.881L113.752 125.342L114.532 126.455L114.946 125.898L114.58 124.881Z" fill="#C5FFBB"/>
        <path d="M117.247 125.714L116.372 125.667L116.462 126.223L117.104 127.15L117.656 126.55L117.247 125.718V125.714Z" fill="#C5FFBB"/>
        <path d="M116.833 124.605L115.406 124.005L115.13 122.569L115.682 122.336L116.234 123.449L116.786 123.868L116.833 124.61V124.605Z" fill="#C5FFBB"/>
        <path d="M115.454 121.686L114.717 121.5L114.579 120.573L113.799 120.297L114.299 119.788L115.217 120.111L115.906 120.529L115.449 121.685L115.454 121.686Z" fill="#C5FFBB"/>
        <path d="M113.063 132.804L111.408 133.223V133.684L112.373 134.24H113.386L114.028 133.498L113.063 132.804Z" fill="#C5FFBB"/>
        <path d="M395.052 161.217L393.069 161.44L391.795 162.372L392.323 163.437L394.482 163.837V164.237L393.117 165.345L393.778 167.652L394.439 167.695L395.01 165.431H396.066L396.508 167.647L401.658 171.908L401.791 175.236L403.551 177.143L404.345 177.1L404.521 165.344L401.53 163.261L398.71 165.168L397.697 165.791L396.023 164.726L395.98 161.355L395.053 161.217H395.052Z" fill="#C5FFBB"/>
        <path d="M43.72 21.193L39.73 22.139L40.553 26.633L44.8951 27.817L45.1281 28.764L38.6751 30.775L35.037 36.805L36.3261 43.191L38.4371 44.608L40.0821 43.072L40.553 44.018L38.553 46.381L30.8061 49.928L25.8751 51.112L25.756 52.886L37.1401 49.576L41.834 48.276L46.1751 42.955L50.9881 39.764L48.5251 43.901L51.225 44.258L55.804 42.247L56.627 45.557L59.794 46.265L63.08 49.456L63.313 51.819L62.8431 52.409L63.428 54.653H64.251L64.3701 50.868H65.3071L65.5401 60.207L67.8891 58.195L66.2441 48.495H63.7811L61.0811 45.066L74.3431 22.597L61.199 12.311L46.5291 15.15L45.944 19.644L49.111 21.537L47.9361 24.613L43.7181 21.189L43.72 21.193Z" fill="#C5FFBB"/>
        <path d="M92.158 160.665L91.863 161.973L91.316 162.525L91.6921 163.2L92.657 162.82L93.118 162.02L92.8231 161.174L92.157 160.674L92.158 160.665Z" fill="#C5FFBB"/>
        <path d="M96.3231 16.917L96.423 18.829L92.6281 22.761L93.579 25.947L96.3181 25.205L97.9011 22.865L101.901 21.377L105.168 21.163L102.638 18.4L101.373 19.356L100.422 19.037L99.8941 17.867L98.7341 16.697L96.314 16.916L96.3231 16.917Z" fill="#C5FFBB"/>
        <path d="M101.279 11.286L100.437 12.774L104.55 14.262L106.024 12.032L106.657 13.52H107.713L109.713 11.29L107.288 10.652L106.337 9.91099L105.072 11.185L101.277 11.285L101.279 11.286Z" fill="#C5FFBB"/>
        <path d="M108.45 14.263L105.183 15.642V16.702L109.402 18.295L108.451 19.355L109.083 20.734L111.717 19.564H113.933L114.989 21.264L116.782 19.457L116.359 17.757L114.885 18.289L114.676 16.163L115.413 14.889H114.676L113.516 15.631L112.988 16.054L113.306 17.543L112.465 18.18L111.2 18.08L110.881 16.168L108.451 14.268L108.45 14.263Z" fill="#C5FFBB"/>
        <path d="M112.773 10.968L112.454 12.028L114.454 12.984L115.928 12.132L115.828 11.495L112.775 10.967L112.773 10.968Z" fill="#C5FFBB"/>
        <path d="M114.351 9.16097L112.877 9.69399L112.977 10.435L116.244 10.221L116.144 9.47903L114.351 9.16V9.16097Z" fill="#C5FFBB"/>
        <path d="M121.417 10.968L121.208 11.71L120.68 12.452V13.512L122.68 13.193L124.786 15H125.523V13.193L123.417 10.853L121.417 10.967V10.968Z" fill="#C5FFBB"/>
        <path d="M126.796 13.093L127.638 14.049L126.901 15.324L127.429 16.703L129.75 15.429V14.473L128.381 12.88L126.797 13.094L126.796 13.093Z" fill="#C5FFBB"/>
        <path d="M129.854 10.649L129.954 12.349H132.803L133.54 12.986L133.44 13.728L130.91 14.047L132.703 16.491L135.128 16.914L138.499 15.426L133.648 8.09401L132.174 9.05L132.274 10.325L130.586 9.688L129.849 10.653L129.854 10.649Z" fill="#C5FFBB"/>
        <path d="M105.287 22.656L101.287 23.716L98.966 25.737L99.175 27.967L103.393 29.241L102.442 31.367L99.3851 29.456L98.543 31.049L100.543 32.428L100.443 34.658L103.501 35.509L107.191 35.295L107.823 34.125L110.562 37.206L112.462 36.569L112.78 34.443L114.15 35.399L114.359 33.273L112.671 32.213L112.771 25.522L111.297 24.352L109.718 26.477L105.291 22.654L105.287 22.656Z" fill="#C5FFBB"/>
        <path d="M118.15 27.331L116.78 26.694L116.043 27.65L117.517 29.99L117.617 32.22L120.779 30.309V27.546L121.94 26.376L120.779 25.525H118.879L118.142 27.332L118.15 27.331Z" fill="#C5FFBB"/>
        <path d="M124.898 26.375L122.682 28.182L123.21 30.412H124.579L125.212 29.242L126.163 30.198L127.114 30.098L129.643 27.972L124.897 26.379L124.898 26.375Z" fill="#C5FFBB"/>
        <path d="M124.684 22.866L124.156 23.926L126.477 24.777L127.109 23.821L124.684 22.865V22.866Z" fill="#C5FFBB"/>
        <path d="M123.315 18.829L120.994 19.147L119.625 20.421L122.155 20.521L121.418 22.433L121.946 23.284L122.683 23.184L124.476 20.317L123.316 18.829H123.315Z" fill="#C5FFBB"/>
        <path d="M127.325 18.086L126.06 18.509L126.27 20.209L128.376 21.588L128.476 22.648L127.844 23.285L128.163 25.41L136.281 28.064L138.497 28.806L140.713 26.895L138.079 24.769L135.653 25.406L132.282 25.087L131.017 23.813L130.698 20.313L128.591 19.253L127.321 18.093L127.325 18.086Z" fill="#C5FFBB"/>
        <path d="M133.962 29.139L131.641 28.925L128.902 29.985L127.428 32.001L127.851 37.527L132.383 37.741L136.705 39.866L139.763 43.366L142.084 43.266L141.451 46.557L139.345 50.057L137.024 51.117L135.336 50.798L134.495 50.056L133.23 51.756L133.758 53.456L135.551 53.556L137.767 52.496L139.667 57.384L144.413 60.465L147.68 56.323L144.941 51.863L146.524 50.056L148.74 53.775L152.74 50.275L152.003 48.682L149.264 49.533L147.364 44.326L149.157 41.354L145.571 37.531L143.571 38.91L141.671 34.768L137.671 35.3L136.615 30.307L133.348 32.537L133.029 35.3H131.236L131.445 32.856L133.961 29.137L133.962 29.139Z" fill="#C5FFBB"/>
        <path d="M138.708 31.048L137.866 31.899L138.603 33.069L142.084 33.493L139.868 31.153L138.708 31.053V31.048Z" fill="#C5FFBB"/>
        <path d="M135.336 19.043V19.999L133.015 20.531L133.647 21.591L136.281 22.652L139.234 22.971L141.341 24.459L143.448 23.289L141.974 21.801H143.874L145.035 20.526L147.884 20.102V19.465L146.301 18.405L146.51 17.235L150.937 17.977L157.475 15.428L155.05 14.686L155.683 13.835H160.742L161.584 12.984L151.355 9.37001L148.93 8.51899L146.295 10.43L143.342 7.98597L141.758 7.886L141.44 9.90699L139.44 8.09999L137.119 8.84199L137.542 10.012L141.023 10.754L140.814 12.454L142.714 13.624L147.355 12.454L147.455 14.047L143.66 15.854L141.339 14.047L139.232 14.261L141.339 17.238L140.283 17.77L138.699 16.391L137.538 17.133L138.594 19.149H140.387L139.964 21.061L138.49 20.847L136.59 18.826L135.334 19.05L135.336 19.043Z" fill="#C5FFBB"/>
        <path d="M125.939 48.283L123.927 50.813L123.804 53.599L125.563 52.586H127.698L129.205 53.979L130.589 52.838L125.938 48.282L125.939 48.283Z" fill="#C5FFBB"/>
        <path d="M150.435 81.189L145.409 86.002L145.909 87.143L152.062 89.421L152.942 87.904L152.442 85.374L150.43 85.626L149.298 84.361L151.181 82.461L150.435 81.186V81.189Z" fill="#C5FFBB"/>
        <path d="M74.6821 22.989L75.628 24.42L76.1041 26.331L78.472 26.926L80.132 25.138L81.554 25.856L85.5821 26.213L88.4261 25.019L88.902 28.956H90.5621V27.287L92.222 27.406L96.368 32.299L99.0931 33.968L97.6711 36.236L98.2661 36.831L103.587 37.906L103.706 40.293L105.128 40.531L105.485 36.95L107.734 36.356L109.394 38.862L112.946 40.531L114.724 40.888L115.908 39.457L116.027 37.189L118.157 35.876L118.866 37.788L116.966 41.131L117.204 42.8L118.269 41.131L120.399 39.219L120.518 36.713L119.334 34.801L119.69 33.251L122.534 31.819L123.834 32.775L124.072 41.13L126.083 39.342L127.267 40.06L125.607 42.923L127.738 43.399L130.82 38.624L133.426 41.368L132.361 46.261L129.755 47.692L127.268 46.498L122.768 47.454L123.243 49.004L122.059 50.916L118.388 51.753L114.241 54.977L110.57 59.87L110.095 61.42L112.582 62.376L113.528 64.763L116.961 68.225L122.41 70.613L121.226 76.1L121.107 77.65L122.529 78.606L124.429 76.1L124.667 71.326L127.63 71.207L129.052 68.463L129.29 64.288L133.08 56.888L137.816 58.557L140.303 62.019L139.238 65.481L141.138 66.556L145.755 63.451L147.055 71.925L151.321 77.056L151.44 79.681L146.704 80.874L144.455 83.262L139.719 82.187L137.351 82.068L133.205 85.292L135.692 84.697L138.774 84.103L139.368 84.821L138.541 87.446L138.66 89.833L140.082 90.789L141.504 90.432L142.217 89.357H143.163L141.622 92.22L138.659 92.339L137.359 94.251H135.702L135.226 92.819L137.594 90.432L134.75 91.388L134.621 87.331L133.803 86.856L131.316 87.931L131.078 89.961H125.391L120.536 93.304L114.021 95.453L113.312 94.497L116.593 89.597L114.729 87.804L113.545 85.531L111.134 83.691L108.547 83.477L103.91 80.229L70.2851 74.703L69.7281 72.425L66.6451 69.565V67.178L67.1201 65.029L66.882 63.835L65.6981 62.641L65.46 60.729L68.5411 58.58L66.6411 48.318L64.0351 48.199L61.6671 45.093L74.678 22.986L74.6821 22.989Z" fill="#C5FFBB"/>
        <path d="M70.183 75.145L69.707 77.057L68.0481 75.982H67.2201L66.745 78.013L60.9391 91.023L62.48 102.36L64.38 103.316L64.7361 106.421H68.645L72.4351 109.284L79.896 110.002L80.723 113.82L81.907 114.657L83.566 112.988L84.8661 113.582L86.05 119.07L88.062 120.383L89.7211 117.278L94.8141 113.578L98.1281 115.128L100.972 115.366L101.091 113.578L107.011 113.697L108.195 115.009L108.433 117.991L107.724 119.66L108.551 122.523H110.329L112.108 119.779L111.399 118.466L110.69 115.603L111.755 112.379L116.61 108.204L120.282 107.129L119.806 103.667L124.899 98.175L129.992 97.338L129.165 94.48L134.139 91.617V87.798L133.663 87.56L131.885 88.154L131.647 90.494L125.736 90.565L121.104 93.642L113.833 96.02L112.672 94.598L115.972 89.605L114.341 88.05L113.233 85.939L110.933 84.094L108.433 83.884L103.716 80.665L70.172 75.144L70.183 75.145Z" fill="#C5FFBB"/>
        <path d="M63.082 60.913L62.274 62.463L62.555 63.563L63.082 63.891L62.9581 64.338L62.392 64.5L62.554 66.131L63.162 66.745L63.647 66.217L63.038 64.629L63.399 63.364L64.288 62.18L63.6411 61.08L63.08 60.914L63.082 60.913Z" fill="#C5FFBB"/>
        <path d="M65.757 70.205L65.029 70.49L66.3651 72.04L66.688 73.876L68.024 75.302L69.1561 75.102V73.228L67.7811 72.372L65.756 70.208L65.757 70.205Z" fill="#C5FFBB"/>
        <path d="M92.1151 138.475L94.935 140.539L97.779 137.006L97.294 136.274L96.324 136.24V134.175L95.596 133.733L93.3961 134.389L94.238 136.329L92.117 138.478L92.1151 138.475Z" fill="#C5FFBB"/>
        <path d="M98.14 137.173L102.534 137.007L103.834 138.557L103.021 138.371L101.457 138.438L99.412 140.359L98.537 142.304L97.962 142.004V139.874L96.697 139.027L98.1431 137.177L98.14 137.173Z" fill="#C5FFBB"/>
        <path d="M95.3311 140.735L97.566 141.848L97.533 140.084L96.387 139.384L95.3311 140.734V140.735Z" fill="#C5FFBB"/>
        <path d="M102.986 138.757L104.028 138.966L104.061 141.101L102.848 144.563L99.5811 144.24L98.853 142.571L99.8231 140.545L101.664 138.833L102.986 138.757Z" fill="#C5FFBB"/>
        <path d="M102.815 144.877L103.476 146.17L104.013 146.884L103.29 149.028L101.911 148.058L99.657 145.994V144.629L102.815 144.876V144.877Z" fill="#C5FFBB"/>
        <path d="M104.341 147.079L103.647 149.248L105.939 149.842L107.361 150.123L107.604 148.445L109.13 147.675L110.485 148.375L111.018 149.226L111.665 149.15L112.174 147.605L110.481 146.905L109.197 146.205L107.913 147.08L106.386 147.851L104.826 147.223L104.341 147.08V147.079Z" fill="#C5FFBB"/>
        <path d="M120.1 142.404L119.12 142.304L112.643 147.645L111.958 149.523L111.073 149.623L111.473 153.774L109.214 159.314L111.668 161.392L114.812 161.592L116.971 164.759L120.11 164.859L120.01 167.232H121.185L122.46 162.881L121.281 161.397L121.576 158.63L124.03 158.43L123.735 152.001L118.235 150.222L116.961 146.761L120.104 142.405L120.1 142.404Z" fill="#C5FFBB"/>
        <path d="M118.545 145.324L118.754 146.555L120.299 147.045L120.651 144.777L122.282 143.089L123.913 145L127.665 146.022L130.841 145.357L133.005 148.024L134.636 149.047L132.848 151.772L133.448 153.836L132.425 155.101L131.365 155.99L129.065 154.835L128.538 155.367V157.012L130.216 157.812L128.98 159.148L127.744 160.484L126.113 160.351L124.473 158.551L124.126 151.77L118.526 149.859L117.508 146.877L118.545 145.327V145.324Z" fill="#C5FFBB"/>
        <path d="M134.993 149.228L138.426 152.338L137.061 153.917L136.951 154.854L138.744 156.704L138.701 158.482L135.581 159.671L133.712 157.146L134.112 154.112L133.312 151.854L134.99 149.229L134.993 149.228Z" fill="#C5FFBB"/>
        <path d="M138.836 152.562L139.806 153.452L141.306 152.52L142.676 152.563L142.5 153.096L141.925 154.296L141.835 157.277L139.101 158.39L139.234 156.479L137.47 154.834L137.56 153.988L138.834 152.566L138.836 152.562Z" fill="#C5FFBB"/>
        <path d="M143.116 152.876L145.898 154.612L144.443 157.503L143.915 158.169L142.369 157.28L142.412 154.165L143.112 152.877L143.116 152.876Z" fill="#C5FFBB"/>
        <path d="M108.911 159.557L106.661 160.957L106.499 163.031L106.047 163.711L107.464 165.072L106.85 165.742L106.992 167.454L109.527 168.054L113.364 163.513L113.355 161.929L111.515 161.81L108.909 159.556L108.911 159.557Z" fill="#C5FFBB"/>
        <path d="M106.453 166.058L105.531 166.99L105.593 168.478L113.648 183.162L122.013 188.554L123.307 186.386L123.616 181.617L122.941 178.645L120.663 174.803L119.308 175.235L118.695 175.915L115.99 172.815L116.665 169.158L119.803 167.113L119.556 165.192L116.356 165.069L114.696 162.282L113.774 161.973L113.836 163.647L109.718 168.54L106.641 167.798L106.451 166.058H106.453Z" fill="#C5FFBB"/>
        <path d="M122.468 177.123L126.382 175.416L127.675 175.54L128.536 179.135L134.499 181.118L135.483 184.157L137.942 184.466L138.988 187.066L138.251 189.42L134.251 189.729L132.777 193.51L129.638 193.448L128.654 193.263L126.842 195.022L125.948 194.936L122.871 187.808L123.722 186.534L124.022 181.493L123.261 178.493L122.467 177.124L122.468 177.123Z" fill="#C5FFBB"/>
        <path d="M138.185 189.829L139.231 190.97L139.107 193.386L142.122 193.2L144.4 196.116L144.214 198.716L142.74 200.946L139.725 201.07L139.601 199.828L140.462 197.783L137.509 195.924H135.05L133.205 193.941L134.546 190.108L138.184 189.828L138.185 189.829Z" fill="#C5FFBB"/>
        <path d="M142.276 205.246L141.301 206.288L141.701 211.888L144.763 212.777L148.657 208.877L142.271 205.249L142.276 205.246Z" fill="#C5FFBB"/>
        <path d="M144.705 198.717L145.628 199.582L142.128 204.789L140.896 206.154L141.324 212.103L144.03 215.389L141.757 219.355L140.036 220.097H138.067L138.619 223.197L135.542 224.253L136.279 226.853L134.434 232.74L136.712 234.599L135.481 237.633L133.389 240.919L134.497 243.211L131.791 243.644L129.575 240.919L129.204 232.431L125.761 218.013L126.802 212.973L124.586 206.53L126.06 198.166L127.415 196.553L127.082 195.331L128.823 193.743L132.703 194.009L134.871 196.325L137.377 196.368L139.945 197.937L139.189 199.706L139.37 201.494L143.007 201.323L144.707 198.723L144.705 198.717Z" fill="#C5FFBB"/>
        <path d="M134.989 244.32L132.958 248.781L136.458 249.151L136.52 246.179L134.984 244.32H134.989Z" fill="#C5FFBB"/>
        <path d="M136.834 246.55L136.958 249.275L139.05 249.089L140.833 247.91L137.818 247.292L136.834 246.55Z" fill="#C5FFBB"/>
        <path d="M134.3 243.621L132.774 245.309L132.589 247.292L129.636 245.618L126.498 241.096L125.575 239.484L126.869 237.81L126.745 235.703L125.271 235.085L124.101 234.22L124.348 233.041L125.884 232.608L126.193 225.794L123.793 224.429L122.229 188.959L122.629 188.259L125.691 195.32L126.67 195.339L126.989 196.466L125.689 198.045L124.189 206.545L126.319 213.088L125.335 218.043L128.806 232.613L129.172 241.134L131.659 244.011L134.293 243.626L134.3 243.621Z" fill="#C5FFBB"/>
        <path d="M124.166 225.793L123.553 226.72L123.862 228.333L124.476 228.395L124.785 226.35L124.167 225.793H124.166Z" fill="#C5FFBB"/>
        <path d="M148.875 208.537L151.847 202.821L151.956 198.021L157.501 194.445H160.606L163.045 190.312L163.488 182.38L162.488 180.259L168.365 174.895L168.589 168.975L160.605 165.066L150.961 162.051L146.415 161.604L147.637 159.036L147.304 155.127L146.31 154.799L144.84 157.719L144.07 158.684L142.092 157.809L135.439 160.153L133.223 157.362L133.58 154.446L131.488 156.577L129.177 155.331L128.944 155.659V156.672L130.937 157.742L127.946 160.895L126.058 160.876L124.146 158.931L121.983 158.997L121.716 161.308L122.957 162.815L121.492 167.509L119.78 167.642L117.055 169.364L116.389 172.745L118.753 175.275L119.185 174.785L120.845 174.338L122.262 176.725L126.318 174.985L127.892 175.076L128.976 178.913L134.763 180.749L135.763 183.811L138.226 184.106L139.401 187.031L138.607 189.631L139.644 190.991L139.492 193.016L142.269 192.755L144.813 195.969L144.613 198.228L146.12 199.502L142.506 204.976L148.869 208.537H148.875Z" fill="#C5FFBB"/>
        <path d="M96.718 134.142L96.6941 135.878H97.094L98.454 133.338H97.532L96.719 134.138L96.718 134.142Z" fill="#C5FFBB"/>
        <path d="M388.414 34.529L389.251 37.42L390.925 37.9L392.599 35.251L391.643 33.444L392 31.879H394.511L393.911 33.079L394.149 37.416L390.563 46.328L390.92 48.254L390.801 51.507L397.492 61.26L398.805 61.621L398.924 53.675L400.236 52.475L398.8 49.346L399.994 48.019L397.364 44.529L395.928 44.648L395.453 38.87L399.153 37.905L399.391 36.217L401.303 35.737L402.378 36.702L403.69 31.402L405.958 27.55L407.751 26.585L409.306 26.704V24.897L406.795 24.417L403.328 21.526L405.002 19.6L403.566 16.347L404.76 15.147L406.196 17.073L409.782 18.4L413.724 18.761L414.204 17.078L412.174 15.033L414.442 11.904L409.301 10.097L407.989 12.746L406.315 10.577L396.876 7.32398L387.912 8.88898L386.6 9.61201V10.335L388.512 11.3L388.274 13.588L384.808 12.142L377.161 15.152L375.848 12.384H370.589L368.197 14.914L359.713 12.988L351.948 14.553L350.992 16.959L352.186 17.32L352.067 19.127L344.54 19.969L345.02 22.375L338.087 21.175L339.761 18.046L332.709 17.685L333.309 20.938L331.041 22.022L329.13 20.215L321.364 21.542L318.378 24.31L318.259 25.993L316.348 26.112L316.11 24.186L322.21 18.886V15.272L318.268 14.188L313.127 15.871L310.978 13.703H310.022L308.828 16.109L309.784 17.193L302.97 20.926L297.116 25.382L293.531 30.318V32.363L297.354 33.928L295.443 35.374L291.382 33.928L289.707 35.372L287.196 32.481L286.716 33.565L289.465 42.234L290.183 42.477L292.095 41.511L293.051 42.234V43.799L291.258 43.076L290.183 43.917L290.902 45.482L290.302 49.576L286.602 49.938L286.364 48.611L288.514 47.284L288.994 43.67L286.602 40.541L285.765 35.125L281.942 34.525L281.585 36.451L282.303 37.416L280.748 38.743L281.348 42.357L283.616 43.322L284.096 45.971L281.823 44.525L275.969 43.441L275.251 45.367L270.591 47.051L269.873 45.851L263.773 49.223L263.654 51.51L261.262 51.871L261.98 50.187V48.504L259.588 47.662L258.033 48.262L259.345 50.792L260.301 52.475V53.802L258.508 53.441L258.152 53.08L256.359 55.006L257.315 56.689L253.254 56.57L254.567 58.258L254.21 58.981H252.06L250.506 57.897L250.149 54.887L247.638 53.922V52.722L252.898 53.806L255.765 54.048L256.958 52.241L255.884 50.315L248.238 47.305L245.599 47.962L244.699 48.737L244.98 50.52L246.102 50.72L245.841 53.525L249.303 61.656L246.803 65.622L246.632 66.516L247.902 67.41L246.756 68.166L245.995 68.18L246.137 71.68L247.188 73.168L247.202 74.614L248.548 74.737L250.607 75.522L252.785 78.522L252.809 79.312L252.1 80.525L253.726 80.435L255.31 80.891L257.45 83.92L262.719 84.4L262.491 88L260.675 89.555L261.051 90.164L259.258 92.09L258.783 93.897L259.857 95.461L263.324 96.661L264.76 95.819L273.96 99.309L274.317 98.344L272.406 96.537V94.25L271.212 93.889L271.45 91.963L273.362 89.676L269.933 87.108L270.171 83.537L273.838 81.126L278.138 81.368L278.856 82.695L283.278 82.938L286.507 81.131L284.833 79.324L285.19 75.952L293.555 71.858L299.989 74.758L302.138 72.832L308.472 78.852L313.251 78.372L314.925 80.055L319.466 80.535L322.452 76.44L326.275 78.128L328.305 78.49L330.336 76.683L328.543 75.483L330.098 73.077L334.52 74.523L335.476 76.449L337.387 76.568L338.581 75.726L341.81 75.607L342.167 76.449L345.867 76.692L348.377 74.043L353.518 74.643L355.073 74.043L355.549 71.152L353.994 67.662L355.549 66.335H360.449L365.11 71.875L371.082 75.247H372.875L373.113 73.801L375.262 72.474L375.5 80.301L373.589 80.42V82.329L374.663 83.655L374.463 85.377L375.257 85.705L375.737 84.505L376.455 84.747L376.931 85.227L379.08 84.747L381.229 78.484L381.467 70.657L378.719 64.394L375.252 60.181L373.578 60.423V61.75L369.517 60.186L371.072 56.814L372.385 47.902L377.885 46.219L380.515 44.536H383.383L382.665 45.501L383.383 46.701L385.894 44.052L387.33 44.171L387.092 42.606L384.819 42.126L386.375 36.467L388.424 34.527L388.414 34.529Z" fill="#C5FFBB"/>
        <path d="M318.239 80.724L316.594 84.861L314.326 84.742L311.934 89.977L313.965 92.564L309.781 98.342L307.631 97.98L306.195 99.787L306.552 100.871L308.226 100.99L309.063 102.916L310.737 103.277L315.877 109.901V113.272L318.388 114.837L321.137 114.357L324.603 116.402L328.788 117.602L330.818 117.36L333.091 117.118L337.87 113.989L339.425 114.232L340.019 115.644L341.336 116.039L343.129 118.688L341.936 121.337L342.654 123.144L344.685 123.867L345.042 126.035L347.434 126.278L347.791 125.193L351.258 123.386L353.407 123.505L355.918 126.273L357.592 125.55L358.666 125.669L359.146 126.996L359.983 127.115L361.176 125.432L365.955 123.625L370.255 118.447L371.691 113.511L371.572 110.258L369.779 109.897L370.853 108.697L370.615 106.771L366.074 102.196V99.909L367.387 98.226L368.7 97.626L368.819 96.299H365.471L364.871 98.106L363.316 97.745L361.404 95.7L362.597 92.571L364.271 90.764L365.826 90.883L365.597 93.647L366.434 94.37L368.465 92.325L369.183 92.206L368.945 90.641L370.856 88.354L372.292 88.473L373.129 85.825L374.109 85.307L374.209 83.657L373.258 82.657L373.177 80.051L375.008 79.932L374.889 73.213L373.605 73.983L373.125 75.705H370.981L364.765 72.205L360.276 66.793L355.721 66.745L354.561 67.753L356.035 71.13L355.521 74.297L353.686 75.058L352.654 74.977L352.578 78.111L353.653 78.353L355.565 77.512L358.075 78.712V79.912L356.283 80.031L354.846 83.16L353.534 83.279L348.874 89.418L343.974 91.586L340.626 91.829L338.358 90.264L335.129 91.952L331.663 90.868L330.826 88.581L324.972 88.22L321.867 83.165H320.554L319.498 80.821L318.239 80.724Z" fill="#C5FFBB"/>
        <path d="M319.856 80.771L322.624 77.1L325.948 78.636L328.207 79.236L330.974 76.696L329.096 75.312L330.333 73.567L334.023 74.867L335.302 76.967L337.613 77.029L338.821 76.129L341.308 76.029L341.85 76.951L345.983 77.16L348.598 74.492L352.216 74.873L352.007 78.506L353.59 78.867L355.535 77.982L357.594 79L357.546 79.513L356.053 79.556L354.498 82.818L353.29 82.937L348.59 89.076L343.79 91.192L340.79 91.425L338.298 89.818L335.112 91.518L331.974 90.543L331.084 88.265L325.14 87.846L322.097 82.687L320.618 82.587L319.852 80.756L319.856 80.771Z" fill="#C5FFBB"/>
        <path d="M369.54 92.232L370.415 92.598L370.681 95.661L372.417 95.761L374.053 93.845L373.487 93.345L373.553 91.291L375.053 89.474L374.287 88.095L374.787 87.524L375.063 86.098L374.192 85.703L373.45 86.078L372.532 88.865L371.048 88.737L369.331 90.763L369.531 92.237L369.54 92.232Z" fill="#C5FFBB"/>
        <path d="M374.324 94.1L377.262 96.5L377.762 98.82L377.662 100.066L376.226 101.683L374.99 101.749L373.59 98.72L373.058 97.2739L373.624 96.8371L373.491 96.237L372.791 95.923L374.327 94.107L374.324 94.1Z" fill="#C5FFBB"/>
        <path d="M273.678 89.544L275.627 88.712L277.805 88.636L277.957 91.965H276.684L275.709 93.553L276.983 95.669L278.861 96.729L279.033 97.942L279.723 97.714L280.36 96.958L281.411 97.186L281.939 98.246H283.284V96.886L282.456 94.465L282.08 92.501L284.48 91.441L287.709 91.969L289.734 94.009L294.313 93.558L296.867 97.186L299.867 97.338L300.694 95.978L301.745 95.75L301.897 94.238L303.471 94.162L304.298 95.146L305.126 93.182L312.254 94.167L313.454 92.579L311.428 90.079L314.128 84.179L316.306 84.331L317.806 80.703L314.806 80.403L313.08 78.739L308.325 79.291L302.2 73.37L300.041 75.286L293.493 72.314L285.462 76.247L285.238 79.047L287.116 81.239L283.455 83.307L278.704 83.207L277.711 81.747L273.988 81.547L270.459 83.815L270.383 86.915L273.669 89.554L273.678 89.544Z" fill="#C5FFBB"/>
        <path d="M281.837 98.565L281.543 99.816H279.569V101.509L281.69 102.909L281.034 104.825V105.71L281.914 105.857L283.084 104.312L285.718 103.722L291.348 105.857L291.419 107.403L294.562 107.698L298.072 104.012L297.634 102.833L295.295 102.319L288.713 98.044L288.419 96.499H285.932L284.832 98.563H283.732H281.832L281.837 98.565Z" fill="#C5FFBB"/>
        <path d="M298.515 104.02L299.98 104.096V101.59L298.591 100.781L300.931 97.833H301.882L302.833 98.941L305.321 97.985L301.882 96.806L301.749 96.092L300.931 96.292L300.131 97.692L296.664 97.578L294.12 93.978L289.65 94.421L287.52 92.309L284.571 91.809L282.431 92.679L283.672 96.807L283.687 98.195L284.587 98.214L285.695 96.103L288.644 96.141L289.081 97.7621L295.401 101.956L297.845 102.517L298.516 104.017L298.515 104.02Z" fill="#C5FFBB"/>
        <path d="M299.118 100.586L301.072 98.161H301.809L302.066 98.703L301.166 99.359V99.901L301.761 100.329L304.619 100.5L305.551 100.1L305.974 100.186L306.26 101.099L307.96 101.27L308.811 103.07L308.554 103.612L308.216 103.64L307.878 102.955L307.141 102.898L305.867 103.069L305.781 104.269L304.507 104.183L304.564 102.671L303.632 101.758L302.215 102.928L302.244 103.698L300.998 104.126H300.261L300.318 101.473L299.124 100.588L299.118 100.586Z" fill="#C5FFBB"/>
        <path d="M302.267 94.5799L302.12 95.78L302.239 96.522L306.376 97.911L302.743 99.375L302.33 99.033L301.545 99.533L301.583 99.809L302.001 99.999L304.55 100.065L305.843 99.675L307.502 97.583L309.58 97.944L312.086 94.473L305.386 93.5601L304.459 95.8101L303.289 94.5539L302.271 94.573L302.267 94.5799Z" fill="#C5FFBB"/>
        <path d="M291.477 107.819L292.233 113.744L294.116 114.158L294.292 115.223L292.942 116.35L295.458 118.381L300.346 116.622L300.736 114.539L303.812 112.618L304.992 108.167L305.872 107.221L304.959 105.632L307.936 103.792L307.555 103.259L306.181 103.345L306.057 104.61L304.212 104.591L304.179 102.903L303.584 102.195L302.584 103.103L302.612 103.935L301.105 104.506L298.323 104.33L294.709 108.115L291.476 107.82L291.477 107.819Z" fill="#C5FFBB"/>
        <path d="M295.761 118.657L296.998 120.493L296.879 121.439L295.233 122.09L295.114 123.631H296.998L297.644 123.099H301.229L304.462 125.943L304.876 124.578H307.287L307.344 122.861L304.876 120.493L305.404 119.193L307.934 119.017L311.344 111.908L309.461 110.429L308.761 107.942L313.345 107.529L310.639 103.677L309.198 103.287L308.608 104.001L308.166 104.034L305.46 105.751L306.345 107.235L305.345 108.3L304.108 112.861L301.05 114.815L300.637 116.95L295.763 118.662L295.761 118.657Z" fill="#C5FFBB"/>
        <path d="M318.516 148.696L320.693 147.631L321.987 142.952L321.93 137.208L329.339 129.208V127.308L330.865 126.713L330.808 124.521L329.162 121.321L330.103 119.604L332.162 121.504L334.806 121.623V122.688L333.983 123.577L334.159 124.052L335.571 124.109L335.866 125.709H336.279L337.34 123.809L337.868 118.835L339.632 117.589L339.689 115.872L338.989 114.507L337.871 114.45L333.497 117.341L333.772 119.2L330.7 119.19L329.616 117.863L329.026 117.939L329.226 119.784L322.583 119.308L318.465 117.472L318.246 115.213L315.502 113.513L315.469 110.013L313.586 107.859L309.258 108.273L309.729 110.156L311.85 111.873L308.184 119.373L305.73 119.559L305.33 120.459L307.746 122.694L307.627 124.953L305.159 124.915L304.893 126.037L306.943 125.947L307 126.837L305.531 127.607L306.472 129.386L308.293 129.98L309.411 129.153L309.939 127.674L310.586 127.374L311.352 128.144L311.119 130.044L310.591 130.933L310.71 132.474L318.523 148.689L318.516 148.696Z" fill="#C5FFBB"/>
        <path d="M318.612 115.195L318.831 117.226L322.673 118.967L328.831 119.424L328.598 117.935L324.484 116.804L320.994 114.726L318.612 115.197V115.195Z" fill="#C5FFBB"/>
        <path d="M330.128 117.82L330.865 118.828L333.357 118.847L333.105 117.468L330.128 117.82Z" fill="#C5FFBB"/>
        <path d="M330.208 120.215L329.585 121.342L331.202 124.414L331.25 126.814L331.545 127.456L333.445 127.489L334.519 126.457L335.299 126.928L335.456 128.388L336.079 127.998L336.117 126.134L335.594 126.072L335.266 124.488L333.944 124.441L333.616 123.561L334.424 122.482L334.438 121.95H332.089L330.21 120.219L330.208 120.215Z" fill="#C5FFBB"/>
        <path d="M346.315 144.244L344.998 142.133L345.953 140.792L345.053 139.132L344.202 138.971L344.041 136.184L342.766 133.716L342.395 134.306L341.544 135.752L340.479 135.914L339.946 135.214L339.68 133.335L338.88 131.835L335.628 128.768L336.428 128.24L336.576 126.019L337.765 124.019L338.279 119.05L340 117.875L340.057 116.064L341.089 116.406L342.716 118.76L341.508 121.347L342.321 123.378L344.333 124.167L344.699 126.378L347.399 126.796L346.652 128.085L343.252 129.426L342.881 131.626L345.381 134.841L345.481 136.558L344.897 137.147L344.949 137.685L346.813 140.419L346.865 143.258L346.318 144.247L346.315 144.244Z" fill="#C5FFBB"/>
        <path d="M346.595 128.468L348.135 130.451V132.862L348.668 133.128L351.117 131.949L351.597 132.111L354.522 135.487L354.422 137.793L353.466 137.631L352.615 137.094L351.978 137.146L350.861 139.02L351.075 140.037L351.975 140.517L351.923 141.644L351.286 141.967L349.103 140.467V139.126L348.203 139.074L347.832 139.664L347.642 145.664L349.055 148.241L351.555 150.652L351.455 151.352L350.123 151.3L348.901 149.479H347.621L346.021 148.19L345.541 146.849L346.23 145.722L346.468 144.704L347.219 143.373L347.186 140.31L345.351 137.657L345.275 137.334L345.87 136.734L345.732 134.627L343.288 131.527L343.573 129.744L346.602 128.465L346.595 128.468Z" fill="#C5FFBB"/>
        <path d="M347.87 149.856L348.826 152.001L349.04 154.787L350.319 156.77L353.405 158.644L354.575 158.753L354.361 156.822L353.348 154.359L351.865 151.206L351.741 151.758L349.953 151.677L348.669 149.832L347.869 149.856H347.87Z" fill="#C5FFBB"/>
        <path d="M351.565 142.257L353.51 144.335L357.129 141.653L357.447 137.42L355.578 138.709L354.608 138.167L353.291 137.991L352.553 137.473L352.196 137.492L351.231 139.076L351.388 139.808L352.367 140.355L352.248 141.843L351.563 142.257H351.565Z" fill="#C5FFBB"/>
        <path d="M349.182 124.881L348.031 125.466L347.075 128.252L348.675 130.287L348.409 132.537L348.675 132.646L351.333 131.357L354.899 135.342L354.813 137.853L355.588 138.271L357.504 136.716L357.347 135.485L351.816 130.23L351.868 129.43L352.558 128.95L352.077 127.609L349.79 127.233L349.181 124.884L349.182 124.881Z" fill="#C5FFBB"/>
        <path d="M353.742 144.622L354.308 145.511L354.408 146.528L355.897 146.69L357.704 144.279L359.404 143.799L360.304 141.336L359.881 137.37L358.126 134.959L356.276 133.48L353.922 129.438L355.61 126.614L353.194 123.841L351.259 123.756L349.519 124.693L350.037 126.933L352.358 127.342L352.981 129.068L352.163 129.6L352.216 130.028L357.66 135.354L357.874 136.918L357.546 141.864L353.732 144.622H353.742Z" fill="#C5FFBB"/>
        <path d="M263.582 96.938L265.137 98.969L267.077 99.863H268.271L270.32 99.307L270.834 98.5069L264.771 96.239L263.582 96.948V96.938Z" fill="#C5FFBB"/>
        <path d="M270.363 99.659L272.645 102.636L271.975 103.42L270.358 103.14L268.351 101.34L268.46 100.16L270.36 99.66L270.363 99.659Z" fill="#C5FFBB"/>
        <path d="M271.166 98.627L270.686 99.445L272.926 102.384L273.706 102.132L274.99 103.478L275.547 101.119L276.94 101.343L276.883 100.667L274.591 98.66L274.154 99.839L271.167 98.6259L271.166 98.627Z" fill="#C5FFBB"/>
        <path d="M270.329 103.492L269.749 104.092L269.806 105.048L270.529 106.061L273.092 108.867L272.702 109.989H272.255L272.032 111.111L273.482 112.966L274.818 113.08L277.495 116.78L278.995 116.894L280.165 117.736L280.222 119.419L284.849 122.119H286.575L287.635 121.219L288.971 121.162L289.751 122.962L294.751 123.657L294.899 121.821L296.554 121.221L296.63 120.565L295.313 118.765L292.379 116.406L293.92 115.006L293.811 114.388L291.88 114.088L291.062 107.573L290.962 106.073L285.727 104.073L283.407 104.596L282.107 106.189L280.956 106.113L280.623 106.393L278.06 106.227L274.826 103.868L273.626 102.551L273.075 102.684L272.081 103.82L270.326 103.487L270.329 103.492Z" fill="#C5FFBB"/>
        <path d="M265.123 99.326L264.062 100.448L260.162 100.334L257.823 98.934L255.54 98.877L252.92 100.732L250.466 100.846L250.242 102.246H247.455L246.343 103.258V103.82L247.013 104.381V104.999L246.733 105.731L247.013 106.349L247.907 105.902L248.801 106.858L248.578 107.533L248.245 107.985L248.745 108.546L251.199 109.046L252.925 108.314V107.249L253.762 107.416L255.769 108.595L257.942 108.257L258.888 107.357L259.501 107.581V108.594H260.338L261.061 107.194L267.414 106.519L270.187 106.181L269.455 105.22L269.441 103.92L269.997 103.254L267.971 101.628L268.08 100.228H266.967L265.122 99.3279L265.123 99.326Z" fill="#C5FFBB"/>
        <path d="M271.443 137.388L272.127 139.423V141.411L273.772 142.904L285.365 138.182L285.475 136.882L283.616 133.544L278.951 135.033L276.274 137.667L273.169 135.832L271.443 137.387V137.388Z" fill="#C5FFBB"/>
        <path d="M283.992 133.398L287.506 131.373L288.129 128.401L287.359 127.958L287.677 124.772L288.348 124.382L289.066 125.509L293.341 127.744V128.985L288.163 136.607L285.78 136.688L283.992 133.397V133.398Z" fill="#C5FFBB"/>
        <path d="M281.918 125.837L282.332 127.492L287.021 127.905L287.349 124.505L288.249 124.01L288.496 122.769L287.017 123.183L285.372 125.67L281.915 125.832L281.918 125.837Z" fill="#C5FFBB"/>
        <path d="M281.258 123.022L281.011 124.929L281.743 125.486L282.409 125.424L282.656 123.024L282.081 122.61L281.258 123.024V123.022Z" fill="#C5FFBB"/>
        <path d="M276.815 117.387L275.745 116.807L275.003 117.553L275.084 119.047L276.81 119.708V117.388L276.815 117.387Z" fill="#C5FFBB"/>
        <path d="M277.153 120.273L280.486 124.919L281.561 125.775L282.042 127.858L287.173 128.258L287.753 128.558L287.178 131.126L283.806 133.114L278.875 134.607L276.245 137.175L273.121 135.354L271.229 137.009L268.595 132.709L266.788 131.881L266.132 130.887V128.733L259.556 120.782L259.308 119.374H261.201L263.501 117.387L263.582 116.393L262.926 115.732L264.243 114.657L267.043 114.823L271.812 118.799L274.627 118.671L274.808 119.365L277.157 120.265L277.153 120.273Z" fill="#C5FFBB"/>
        <path d="M259.402 108.809L259.236 110.017L260.577 110.578L260.52 113.926L261.861 113.897L263.202 112.884L263.702 112.798L266.746 110.378L267.36 106.864L261.278 107.482L260.636 108.89L259.399 108.809H259.402Z" fill="#C5FFBB"/>
        <path d="M267.79 106.859L267.048 110.525L263.976 113.083L264.171 114.291L267.171 114.491L271.95 118.381L274.623 118.305L274.694 117.405L275.673 116.354L277.043 117.129L277.224 116.957L274.575 113.434L273.319 113.358L271.65 111.214L271.983 109.635L272.492 109.569L272.668 108.869L270.395 106.477L267.789 106.853L267.79 106.859Z" fill="#C5FFBB"/>
        <path d="M260.462 114.348L259.292 118.428L259.24 119.051H261.08L263.139 117.235L263.191 116.545L262.35 115.684L263.857 114.434L263.638 113.274L263.224 113.374L261.969 114.274L260.462 114.355V114.348Z" fill="#C5FFBB"/>
        <path d="M259.178 110.382L259.206 111.31L258.816 112.717L260.157 112.831L260.243 110.831L259.178 110.379V110.382Z" fill="#C5FFBB"/>
        <path d="M258.76 113.055L258.009 115.447L258.984 118.315L260.101 114.126V113.226L258.76 113.055Z" fill="#C5FFBB"/>
        <path d="M257.757 109.146L258.342 109.57L256.53 111.286L255.664 111.257L255.022 110.806L255.107 109.964L256.42 109.878L257.756 109.146H257.757Z" fill="#C5FFBB"/>
        <path d="M244.561 48.421L245.522 47.721L245.436 46.932L244.827 46.58L244.913 45.615H245.436V45.087L243.168 44.473L239.768 44.825L239.421 46.318L238.636 46.057L238.113 45.177L236.454 45.263L236.278 46.932L235.493 47.284L235.056 46.404L231.566 49.214L232.266 50.004L230.958 50.617L227.991 56.504L226.945 57.204L227.03 57.732L228.076 58.26L227.815 59.401L226.07 59.311L225.547 58.698L224.415 60.015L223.715 60.543L223.539 61.775L222.93 62.127L221.361 62.479L220.576 64.942L221.1 68.984L221.709 70.829L222.409 71.529L223.978 71.443L226.246 69.243L227.116 67.75L227.378 69.95L228.862 67.315L228.947 59.93L230.155 59.169L230.517 55.094L234.179 49.82L235.924 49.206L236.709 48.241L239.324 48.854L240.632 49.644L241.069 47.444L243.252 46.127L244.565 48.414L244.561 48.421Z" fill="#C5FFBB"/>
        <path d="M211.587 70.742L210.717 72.059L211.064 72.587H213.071V73.467L212.547 74.167L212.894 76.012L214.026 78.212L214.896 80.233L216.289 80.761L216.898 81.817L216.813 82.782L215.943 83.31L215.857 83.748L216.466 84.1L215.943 84.8L214.721 85.328L212.367 85.067L208.701 86.736L207.479 86.123L210.969 84.102L210.532 83.841L208.701 83.665L209.833 81.996L210.009 80.589L211.493 80.413L211.232 77.688L209.487 77.602L208.964 76.989L209.05 74.968L208.004 75.053L209.05 71.539L210.971 70.131L211.589 70.74L211.587 70.742Z" fill="#C5FFBB"/>
        <path d="M207.926 76.636L206.357 76.811L206.272 78.219L207.318 78.919L208.45 78.658L208.888 77.868L207.927 76.632L207.926 76.636Z" fill="#C5FFBB"/>
        <path d="M208.444 79.048L208.011 81.901L204.174 83.309H202.952L202.082 82.696V82.168L204.003 80.937L203.48 79.881L203.566 78.388L205.226 78.474L205.986 76.686L205.886 78.274L207.175 79.296L208.444 79.049V79.048Z" fill="#C5FFBB"/>
        <path d="M236.12 49.581L237.052 50.442H238.797L239.758 52.287L240.019 55.449L237.665 57.118V58.787L236.006 61.074L235.045 61.16L233.737 63.36L233.822 65.472L236.091 67.141L235.915 68.106L235.045 69.423L233.737 70.564L233.822 74.344L231.816 75.044L231.116 76.537H230.155L229.632 73.902L227.449 70.554L229.242 67.554L229.365 60.141L230.602 59.461L230.902 55.219L234.426 50.174L236.119 49.579L236.12 49.581Z" fill="#C5FFBB"/>
        <path d="M240.437 55.459L241.421 55.892L242.029 57.033L241.421 57.822L238.368 61.16L237.844 62.919L238.544 65.468L240.898 67.227L244.037 65.734L246.567 65.382L248.921 61.601L247.176 57.468L245.516 53.512L245.777 50.963L244.732 50.787L244.461 48.928L243.054 46.628L241.494 47.707L240.88 50.213L239.225 49.219L236.925 48.658L236.412 49.258L237.296 50.058L238.908 50.029L240.208 52.129L240.441 55.457L240.437 55.459Z" fill="#C5FFBB"/>
        <path d="M245.801 71.831L242.543 71.303L242.615 73.124L245.635 74.969L246.872 74.608L246.8 73.22L245.8 71.832L245.801 71.831Z" fill="#C5FFBB"/>
        <path d="M240.423 70.057L239.686 70.033L239.258 70.466L239.567 70.923L240.304 70.971L240.684 70.419L240.423 70.058V70.057Z" fill="#C5FFBB"/>
        <path d="M240.352 71.997L239.639 71.926L238.355 73.462V74.18L238.782 74.347L239.615 74.371L240.994 73.244L241.184 72.859L240.352 71.998V71.997Z" fill="#C5FFBB"/>
        <path d="M242.349 73.416L241.327 73.392L239.927 74.733H238.738L238.809 76.411L238.096 77.728L240.664 77.752L241.401 77.652L242.139 78.541L243.827 78.47L245.443 76.411L245.348 75.189L242.348 73.411L242.349 73.416Z" fill="#C5FFBB"/>
        <path d="M242.279 78.926L242.993 80.1L242.707 81.037L242.755 81.779L243.016 82.668L244.49 81.831L246.321 81.879L247.605 82.407H250.862L251.813 80.129L252.384 79.268V78.693L250.338 75.812L248.531 75.094L247.057 74.927L245.773 75.336L245.82 76.63L244.037 78.884L242.277 78.922L242.279 78.926Z" fill="#C5FFBB"/>
        <path d="M242.659 82.953L243.059 83.695L243.159 84.484L242.826 85.25L242.065 86.715L241.423 87.005L240.591 86.644L240.091 86.668L238.879 87.125L237.5 86.716L235.265 85.132L233.078 83.958L232.198 82.617L232.032 79.455L233.744 77.967L235.979 77.225L236.811 77.125L236.478 77.796L236.692 78.057L240.453 78.128L241.261 78.104L242.593 80.144L242.26 80.981L242.402 81.965L242.659 82.949V82.953Z" fill="#C5FFBB"/>
        <path d="M212.653 97.334H206.595L205.373 96.782L204.783 96.825L204.069 98.309L204.321 99.835L206.637 100.049L206.932 101.024L205.924 106.707L205.967 107.725L207.608 108.614L209.501 108.743L213.286 107.81L215.136 105.48L215.179 103.107L218.46 100.14L218.626 98.8281L215.64 98.785L212.654 97.335L212.653 97.334Z" fill="#C5FFBB"/>
        <path d="M204.364 100.301L204.069 104.414L203.227 105.175L203.313 105.641L203.903 106.616L203.523 107.805L204.156 108.019L205.63 107.848L205.545 106.659L206.51 101.147L206.301 100.386L204.365 100.301H204.364Z" fill="#C5FFBB"/>
        <path d="M218.711 103.14L217.955 103.397L218.122 104.077H219.216L219.677 103.568L218.712 103.14H218.711Z" fill="#C5FFBB"/>
        <path d="M226.538 101.319L225.278 101.957L225.444 104.415L226.452 104.586L227.208 103.863V101.533L226.538 101.319Z" fill="#C5FFBB"/>
        <path d="M226.665 98.266L225.737 99.198L225.652 100.045L226.408 100.511L226.703 100.468L226.869 99.2369L226.669 98.267L226.665 98.266Z" fill="#C5FFBB"/>
        <path d="M218.378 84.827L217.327 85.084L215.227 87.371L214.595 87.414L213.753 86.82L213.206 86.948L212.788 88.261L209.716 88.347L209.802 89.027L211.902 90.427L214.341 92.377L214.298 94.707L212.998 96.994L215.818 98.349L218.681 98.435L219.565 97.417L221.372 97.46L221.872 97.926L223.679 97.797L224.606 96.608L223.426 95.208L223.341 94.319L223.593 93.344L223.003 92.498L221.995 92.793L221.867 92.032L224.097 89.573V88.089L222.623 87.243L221.867 87.114L218.377 84.827H218.378Z" fill="#C5FFBB"/>
        <path d="M222.985 79.868L220.831 80.928L221.287 81.342L221.335 82.402L220.878 82.312L220.378 81.527L219.178 83.434L221.028 83.819L221.717 84.546L222.083 84.556L222.326 82.911L223.491 82.421L222.991 79.867L222.985 79.868Z" fill="#C5FFBB"/>
        <path d="M218.953 83.791L218.653 84.552L221.924 86.711L222.866 86.934L222.9 85.912L222.077 84.99H221.577L220.887 84.205L218.961 83.791H218.953Z" fill="#C5FFBB"/>
        <path d="M223.485 79.682L225.185 79.406V78.206L226.607 77.973L227.387 78.757L228.21 78.847L229.494 78.291L230.64 78.615L231.648 79.49L231.786 82.766L232.794 84.107L231.467 84.293L229.267 85.677L229.453 86.138L231.422 87.983L231.284 88.905L229.453 89.827L227.753 89.875L227.339 90.75H226.469L226.055 89.828L224.543 89.457L224.496 87.936L223.212 87.061L223.349 85.953L222.479 84.753L222.707 83.184L223.896 82.628L223.487 79.679L223.485 79.682Z" fill="#C5FFBB"/>
        <path d="M226.161 71.893L224.188 74.076L224.117 75.498L225.017 77.842L226.425 77.576L226.249 75.66L227.219 74.576L227.2 73.725L226.515 71.951L226.163 71.894L226.161 71.893Z" fill="#C5FFBB"/>
        <path d="M228.381 75.764L227.938 75.745L227.358 76.277L227.429 77.11L228.803 77.147L228.874 76.206L228.379 75.764H228.381Z" fill="#C5FFBB"/>
        <path d="M236.491 71.261L235.491 72.055L235.991 73.22L236.88 72.354L236.49 71.26L236.491 71.261Z" fill="#C5FFBB"/>
        <path d="M224.326 89.906L222.253 92.112L222.296 92.336L223.147 92.07L223.913 93.135L225.206 92.679L226.1 93.373L226.466 93.164L227.566 91.433L227.285 91.167L226.196 91.138L225.668 90.059L224.322 89.907L224.326 89.906Z" fill="#C5FFBB"/>
        <path d="M231.706 87.761H233.813L234.94 88.561L237.027 86.825L235.001 85.379L232.994 84.409L231.62 84.657L229.756 85.857L231.705 87.757L231.706 87.761Z" fill="#C5FFBB"/>
        <path d="M235.231 88.836L235.559 89.126L235.602 89.62L239.23 89.539L241.912 88.383L241.869 87.209L241.355 87.437L240.618 87.042L240.166 87.023L238.977 87.499L237.36 87.109L235.229 88.835L235.231 88.836Z" fill="#C5FFBB"/>
        <path d="M227.998 90.259L227.689 90.901L227.955 91.358L229.063 91.13H230.005L231.027 91.995L233.2 91.601L234.8 90.65L235.21 90.008L235.148 89.181L233.712 88.106L231.786 88.125L231.625 89.219L229.599 90.208L227.999 90.26L227.998 90.259Z" fill="#C5FFBB"/>
        <path d="M235.659 90.011L235.107 90.877L235.15 92.199L236.029 92.651L238.735 92.732L242.506 89.555L242.525 88.855L242.117 88.655L239.392 89.891L235.659 90.019V90.011Z" fill="#C5FFBB"/>
        <path d="M234.736 91.147L233.528 91.869L231.274 92.364L231.726 93.664L233.305 93.683L234.76 92.466L234.736 91.144V91.147Z" fill="#C5FFBB"/>
        <path d="M235.126 92.655L233.447 94.039H231.747L231.547 95.239L232.327 95.439L232.717 94.859L233.331 95.396L233.821 97.1081L237.183 98.677L237.516 98.297L234.107 94.778L234.454 94.136L237.692 94.012L238.02 92.98L235.908 93.042L235.133 92.652L235.126 92.655Z" fill="#C5FFBB"/>
        <path d="M234.736 94.452L234.56 94.742L237.751 98.033L238.921 96.311L238.879 95.631L237.857 94.39L234.737 94.452H234.736Z" fill="#C5FFBB"/>
        <path d="M224.019 93.52L223.725 94.267L223.806 95.0801L224.942 96.407L226.73 96.3449L230.677 100.929L233.14 101.642L234.595 103.017L234.942 106.15L235.722 105.694L236.397 103.986L236.231 102.759L237.387 102.659L237.554 101.965L234.296 100.406L231.205 97.367L229.974 95.551L229.674 93.825L231.248 93.45L230.848 92.313L229.883 91.5L229.05 91.462L227.89 91.781L226.796 93.312L226.135 93.75L225.112 93.122L224.023 93.522L224.019 93.52Z" fill="#C5FFBB"/>
        <path d="M233.614 105.903L232.924 105.532L230.57 105.903L230.651 106.54L232.767 107.605L233.086 107.952L233.642 108.033L233.614 105.903Z" fill="#C5FFBB"/>
        <path d="M233.695 109.445L232.901 109.607L232.93 110.487L233.643 110.725L233.962 110.458L233.696 109.445H233.695Z" fill="#C5FFBB"/>
        <path d="M244.613 82.188L243.233 82.963L243.575 84.428L242.301 87.114L242.31 88.298L242.91 88.678L246.753 88.868L247.827 87.979L248.978 88.364L250.628 90.564L249.42 92.733L250.856 93.152L252.735 90.988L253.809 91.183L254.809 91.878L253.929 93.038L255.118 94.893H256.383L257.034 93.656L258.375 93.385L258.413 92.385L255.921 92L255.997 90.921H258.413L261.019 88.834L262.17 87.834L262.36 84.667L257.224 84.206L255.118 81.234L253.663 80.734L251.899 80.81L251.105 82.774L247.491 82.822L246.316 82.28L244.616 82.194L244.613 82.188Z" fill="#C5FFBB"/>
        <path d="M247.073 89.112L248.547 91.38L248.424 92.664L248.952 92.687L250.203 90.571L248.703 88.707L247.852 88.355L247.077 89.111L247.073 89.112Z" fill="#C5FFBB"/>
        <path d="M243.001 89.059L242.877 89.759L240.124 92.051L242.424 95.428L243.898 96.46H246.552L247.427 95.728L248.601 95.576L249.476 96.104L251.026 94.34L250.726 93.455L249.152 93.055L248.078 93.003L248.13 91.49L246.703 89.246L243.003 89.061L243.001 89.059Z" fill="#C5FFBB"/>
        <path d="M239.848 92.36L238.873 93.092H238.397L238.074 94.1L239.225 95.436L239.301 96.497L237.874 98.513L238.074 99.113L238.901 99.265L239.552 98.381L239.904 98.357L240.504 98.937L242.33 98.381L242.178 95.781L239.847 92.352L239.848 92.36Z" fill="#C5FFBB"/>
        <path d="M242.652 96.092L242.728 98.46L243.528 100.125L246.528 100.177L247.878 99.2209L249.205 98.693L248.882 97.181L249.182 96.373L248.507 96.021L247.58 96.097L246.852 96.8299L243.799 96.854L242.653 96.093L242.652 96.092Z" fill="#C5FFBB"/>
        <path d="M239.12 99.5981V101.79L239.748 102.974L240.2 102.922L240.975 101.51L240.523 100.878L240.347 99.314L239.747 98.757L239.119 99.599L239.12 99.5981Z" fill="#C5FFBB"/>
        <path d="M242.402 98.765L240.802 99.293L240.878 100.653L241.254 101.133L243.154 100.248L242.403 98.764L242.402 98.765Z" fill="#C5FFBB"/>
        <path d="M240.399 103.325L240.347 103.957L242.547 105.065L243.598 105.465L243.046 106.045L241.819 106.168L241.643 106.724L242.066 107.68L243.441 108.412L244.041 108.464L244.117 106.823L245.017 105.739L242.563 102.839L242.886 101.854L243.462 101.83L244.337 102.53L244.889 102.254L245.064 101.269L247.642 101.293L247.742 99.781L246.667 100.537L243.514 100.461L241.465 101.521L240.4 103.314L240.399 103.325Z" fill="#C5FFBB"/>
        <path d="M248.156 99.569L248.08 101.257L249.554 100.805L250.229 100.353L250.029 99.621L249.329 99.065L248.154 99.565L248.156 99.569Z" fill="#C5FFBB"/>
        <path d="M245.177 109.502L245.952 109.526L246.276 110.006H247.403L248.154 109.73L248.406 110.03L247.906 110.686L245.706 110.762L245.306 110.234L244.883 109.982L245.178 109.497L245.177 109.502Z" fill="#C5FFBB"/>
    </svg>