<svg width="664" height="1218" viewBox="0 0 664 1218" fill="none" xmlns="http://www.w3.org/2000/svg">
<g clip-path="url(#clip0_3_1377)">
<path d="M384.441 601.237H384.219" stroke="green" stroke-miterlimit="10"/>
<path d="M292.889 673.757H292.668" stroke="green" stroke-miterlimit="10"/>
<path d="M459.24 432.664H459.019" stroke="green" stroke-miterlimit="10"/>
<path d="M185.247 854.026H184.046" stroke="green" stroke-miterlimit="10"/>
<path d="M97.2018 973.608H96" stroke="green" stroke-miterlimit="10"/>
<path d="M104.835 882.544V881.356" stroke="green" stroke-miterlimit="10"/>
<path d="M185.089 950.821V949.633" stroke="green" stroke-miterlimit="10"/>
<path d="M390.473 857.59H389.271" stroke="green" stroke-miterlimit="10"/>
<path d="M430.077 958.601H428.877" stroke="green" stroke-miterlimit="10"/>
<path d="M435.142 1161.12H433.941" stroke="green" stroke-miterlimit="10"/>
<path d="M236.852 892.053H238.052" stroke="green" stroke-miterlimit="10"/>
<path d="M395.801 731.968H397.001" stroke="green" stroke-miterlimit="10"/>
<path d="M334.248 1041.34H335.448" stroke="green" stroke-miterlimit="10"/>
<path d="M346.069 440.478V441.666" stroke="green" stroke-miterlimit="10"/>
<path opacity="0.37" d="M269.419 586.949V585.761" stroke="green" stroke-miterlimit="10"/>
<path opacity="0.37" d="M156.441 380.188V379" stroke="green" stroke-miterlimit="10"/>
<path opacity="0.37" d="M341.266 855.214V856.402" stroke="green" stroke-miterlimit="10"/>
<path opacity="0.37" d="M395.269 944.341H396.469" stroke="green" stroke-miterlimit="10"/>
<path opacity="0.37" d="M289.304 1143.39H290.504" stroke="green" stroke-miterlimit="10"/>
<path opacity="0.37" d="M395.269 1179.26H396.469" stroke="green" stroke-miterlimit="10"/>
<path opacity="0.37" d="M118.037 1008.51H119.237" stroke="green" stroke-miterlimit="10"/>
<path d="M383.605 200.237H383.385" stroke="green" stroke-miterlimit="10"/>
<path d="M292.954 272.757H292.734" stroke="green" stroke-miterlimit="10"/>
<path d="M457.669 31.664H457.449" stroke="green" stroke-miterlimit="10"/>
<path d="M186.37 453.026H185.18" stroke="green" stroke-miterlimit="10"/>
<path d="M99.19 572.608H98" stroke="green" stroke-miterlimit="10"/>
<path d="M106.748 481.544V480.356" stroke="green" stroke-miterlimit="10"/>
<path d="M186.213 549.821V548.633" stroke="green" stroke-miterlimit="10"/>
<path d="M389.577 456.59H388.387" stroke="green" stroke-miterlimit="10"/>
<path d="M428.792 557.601H427.604" stroke="green" stroke-miterlimit="10"/>
<path d="M433.807 760.119H432.618" stroke="green" stroke-miterlimit="10"/>
<path d="M237.467 491.053H238.655" stroke="green" stroke-miterlimit="10"/>
<path d="M394.853 330.968H396.041" stroke="green" stroke-miterlimit="10"/>
<path d="M333.905 640.338H335.093" stroke="green" stroke-miterlimit="10"/>
<path d="M345.61 39.478V40.666" stroke="green" stroke-miterlimit="10"/>
<path opacity="0.37" d="M269.714 185.949V184.761" stroke="green" stroke-miterlimit="10"/>
<path opacity="0.37" d="M340.854 454.214V455.402" stroke="green" stroke-miterlimit="10"/>
<path opacity="0.37" d="M394.326 543.341H395.514" stroke="green" stroke-miterlimit="10"/>
<path opacity="0.37" d="M289.403 742.387H290.591" stroke="green" stroke-miterlimit="10"/>
<path opacity="0.37" d="M394.326 778.262H395.514" stroke="green" stroke-miterlimit="10"/>
<path opacity="0.37" d="M119.82 607.512H121.008" stroke="green" stroke-miterlimit="10"/>
<path d="M383.605 1002.24H383.385" stroke="green" stroke-miterlimit="10"/>
<path d="M292.954 1074.76H292.734" stroke="green" stroke-miterlimit="10"/>
<path d="M457.669 833.664H457.449" stroke="green" stroke-miterlimit="10"/>
<path d="M394.853 1132.97H396.041" stroke="green" stroke-miterlimit="10"/>
<path d="M345.61 841.478V842.666" stroke="green" stroke-miterlimit="10"/>
<path opacity="0.37" d="M269.714 987.949V986.761" stroke="green" stroke-miterlimit="10"/>
<path opacity="0.37" d="M157.847 781.188V780" stroke="green" stroke-miterlimit="10"/>
<path d="M640.605 200.237H640.385" stroke="green" stroke-miterlimit="10"/>
<path d="M549.954 272.757H549.734" stroke="green" stroke-miterlimit="10"/>
<path d="M443.37 453.026H442.18" stroke="green" stroke-miterlimit="10"/>
<path d="M356.19 572.608H355" stroke="green" stroke-miterlimit="10"/>
<path d="M363.748 481.544V480.356" stroke="green" stroke-miterlimit="10"/>
<path d="M443.213 549.821V548.633" stroke="green" stroke-miterlimit="10"/>
<path d="M646.577 456.59H645.387" stroke="green" stroke-miterlimit="10"/>
<path d="M494.467 491.053H495.655" stroke="green" stroke-miterlimit="10"/>
<path d="M651.853 330.968H653.041" stroke="green" stroke-miterlimit="10"/>
<path d="M590.905 640.338H592.093" stroke="green" stroke-miterlimit="10"/>
<path d="M602.61 39.478V40.666" stroke="green" stroke-miterlimit="10"/>
<path opacity="0.37" d="M526.714 185.949V184.761" stroke="green" stroke-miterlimit="10"/>
<path opacity="0.37" d="M597.854 454.214V455.402" stroke="green" stroke-miterlimit="10"/>
<path opacity="0.37" d="M651.326 543.341H652.514" stroke="green" stroke-miterlimit="10"/>
<path opacity="0.37" d="M546.403 742.387H547.591" stroke="green" stroke-miterlimit="10"/>
<path opacity="0.37" d="M651.326 778.262H652.514" stroke="green" stroke-miterlimit="10"/>
<path opacity="0.37" d="M376.82 607.512H378.008" stroke="green" stroke-miterlimit="10"/>
</g>
<defs>
<clipPath id="clip0_3_1377">
<rect width="663.664" height="1217.35" fill="green"/>
</clipPath>
</defs>
</svg>
